{
  "source": "C:\\Users\\Peter\\Desktop\\stuff\\MIUN\\quantitative_research\\video_compression\\videos\\UVG\\Jockey_1920x1080_120fps_420_8bit_YUV.y4m",
  "output": "C:\\Users\\Peter\\Desktop\\stuff\\MIUN\\quantitative_research\\video_compression\\compressed_videos\\UVG\\av1\\2\\Jockey_1920x1080_120fps_420_8bit_YUV_av1.mkv",
  "codec": "av1",
  "ok": "[yuv4mpegpipe @ 000001b5f0045300] Stream #0: not enough frames to estimate rate; consider increasing probesize\nInput #0, yuv4mpegpipe, from 'C:\\Users\\Peter\\Desktop\\stuff\\MIUN\\quantitative_research\\video_compression\\videos\\UVG\\Jockey_1920x1080_120fps_420_8bit_YUV.y4m':\n  Duration: 00:00:05.00, start: 0.000000, bitrate: 2985989 kb/s\n  Stream #0:0: Video: rawvideo (I420 / 0x30323449), yuv420p(progressive), 1920x1080, 120 fps, 120 tbr, 120 tbn\n[out#0/matroska @ 000001b5f0049100] Codec AVOption b:a (set bitrate (in bits/s)) has not been used for any stream. The most likely reason is either wrong type (e.g. a video option with no video streams) or that it is a private option of some decoder which was not actually used for any stream.\nStream mapping:\n  Stream #0:0 -> #0:0 (rawvideo (native) -> av1 (libsvtav1))\nPress [q] to stop, [?] for help\nSvt[info]: -------------------------------------------\nSvt[info]: SVT [version]:\tSVT-AV1 Encoder Lib v3.1.0-19-g6ecfe8ec\nSvt[info]: SVT [build]  :\tGCC 15.2.0\t 64 bit\nSvt[info]: LIB Build date: Aug 17 2025 11:37:13\nSvt[info]: -------------------------------------------\n[libsvtav1 @ 000001b5f004c140] Specified chroma sample location center is unsupported on the AV1 bit stream level. Usage of a container that allows passing this information - such as Matroska - is recommended.\nSvt[info]: Level of Parallelism: 5\nSvt[info]: Number of PPCS 93\nSvt[info]: [asm level on system : up to avx2]\nSvt[info]: [asm level selected : up to avx2]\nSvt[info]: -------------------------------------------\nSvt[info]: SVT [config]: main profile\ttier (auto)\tlevel (auto)\nSvt[info]: SVT [config]: width / height / fps numerator / fps denominator \t\t: 1920 / 1080 / 120 / 1\nSvt[info]: SVT [config]: bit-depth / color format \t\t\t\t\t: 8 / YUV420\nSvt[info]: SVT [config]: preset / tune / pred struct \t\t\t\t\t: 4 / PSNR / random access\nSvt[info]: SVT [config]: gop size / mini-gop size / key-frame type \t\t\t: 641 / 16 / key frame\nSvt[info]: SVT [config]: BRC mode / target bitrate (kbps)\t\t\t\t: VBR / 2000 \nSvt[info]: SVT [config]: AQ mode / Variance Boost \t\t\t\t\t: 2 / 0\nSvt[info]: SVT [config]: sharpness / luminance-based QP bias \t\t\t\t: 0 / 0\nSvt[info]: SVT [config]: QP scale compress strength \t\t\t\t\t: 0\nSvt[info]: -------------------------------------------\nOutput #0, matroska, to 'C:\\Users\\Peter\\Desktop\\stuff\\MIUN\\quantitative_research\\video_compression\\compressed_videos\\UVG\\av1\\2\\Jockey_1920x1080_120fps_420_8bit_YUV_av1.mkv':\n  Metadata:\n    encoder         : Lavf62.3.100\n  Stream #0:0: Video: av1 (AV01 / 0x31305641), yuv420p(tv, progressive), 1920x1080, q=2-31, 2000 kb/s, 120 fps, 1k tbn\n    Metadata:\n      encoder         : Lavc62.11.100 libsvtav1\n    Side data:\n      cpb: bitrate max/min/avg: 0/0/2000000 buffer size: 2000000 vbv_delay: N/A\nframe=    0 fps=0.0 q=0.0 size=       0KiB time=N/A bitrate=N/A speed=N/A elapsed=0:00:05.19    \nframe=    0 fps=0.0 q=0.0 size=       0KiB time=N/A bitrate=N/A speed=N/A elapsed=0:00:06.60    \nframe=    0 fps=0.0 q=0.0 size=       0KiB time=N/A bitrate=N/A speed=N/A elapsed=0:00:07.20    \nframe=    0 fps=0.0 q=0.0 size=       0KiB time=N/A bitrate=N/A speed=N/A elapsed=0:00:07.80    \nframe=    0 fps=0.0 q=0.0 size=       0KiB time=N/A bitrate=N/A speed=N/A elapsed=0:00:08.40    \nframe=    0 fps=0.0 q=0.0 size=       0KiB time=N/A bitrate=N/A speed=N/A elapsed=0:00:09.01    \nframe=    0 fps=0.0 q=0.0 size=       0KiB time=N/A bitrate=N/A speed=N/A elapsed=0:00:09.58    \nframe=    0 fps=0.0 q=0.0 size=       0KiB time=N/A bitrate=N/A speed=N/A elapsed=0:00:10.18    \nframe=    0 fps=0.0 q=0.0 size=       0KiB time=N/A bitrate=N/A speed=N/A elapsed=0:00:10.78    \nframe=    0 fps=0.0 q=0.0 size=       0KiB time=N/A bitrate=N/A speed=N/A elapsed=0:00:11.37    \nframe=    0 fps=0.0 q=0.0 size=       0KiB time=N/A bitrate=N/A speed=N/A elapsed=0:00:11.92    \nframe=    0 fps=0.0 q=0.0 size=       0KiB time=N/A bitrate=N/A speed=N/A elapsed=0:00:12.50    \nframe=    0 fps=0.0 q=0.0 size=       0KiB time=N/A bitrate=N/A speed=N/A elapsed=0:00:13.08    \nframe=    0 fps=0.0 q=0.0 size=       0KiB time=N/A bitrate=N/A speed=N/A elapsed=0:00:13.67    \nframe=    0 fps=0.0 q=0.0 size=       0KiB time=N/A bitrate=N/A speed=N/A elapsed=0:00:14.24    \nframe=    0 fps=0.0 q=0.0 size=       0KiB time=N/A bitrate=N/A speed=N/A elapsed=0:00:14.83    \nframe=    0 fps=0.0 q=0.0 size=       0KiB time=N/A bitrate=N/A speed=N/A elapsed=0:00:15.39    \nframe=    0 fps=0.0 q=0.0 size=       0KiB time=N/A bitrate=N/A speed=N/A elapsed=0:00:15.94    \nframe=    0 fps=0.0 q=0.0 size=       0KiB time=N/A bitrate=N/A speed=N/A elapsed=0:00:16.54    \nframe=    0 fps=0.0 q=0.0 size=       0KiB time=N/A bitrate=N/A speed=N/A elapsed=0:00:17.13    \nframe=    0 fps=0.0 q=0.0 size=       0KiB time=N/A bitrate=N/A speed=N/A elapsed=0:00:17.71    \nframe=    0 fps=0.0 q=0.0 size=       0KiB time=N/A bitrate=N/A speed=N/A elapsed=0:00:18.29    \nframe=    0 fps=0.0 q=0.0 size=       0KiB time=N/A bitrate=N/A speed=N/A elapsed=0:00:18.85    \nframe=    0 fps=0.0 q=0.0 size=       0KiB time=N/A bitrate=N/A speed=N/A elapsed=0:00:19.43    \nframe=    0 fps=0.0 q=0.0 size=       0KiB time=N/A bitrate=N/A speed=N/A elapsed=0:00:20.02    \nframe=    0 fps=0.0 q=0.0 size=       0KiB time=N/A bitrate=N/A speed=N/A elapsed=0:00:20.61    \nframe=    0 fps=0.0 q=0.0 size=       0KiB time=N/A bitrate=N/A speed=N/A elapsed=0:00:21.20    \nframe=    0 fps=0.0 q=0.0 size=       0KiB time=N/A bitrate=N/A speed=N/A elapsed=0:00:21.76    \nframe=    0 fps=0.0 q=0.0 size=       0KiB time=N/A bitrate=N/A speed=N/A elapsed=0:00:22.32    \nframe=    1 fps=0.0 q=25.0 size=       1KiB time=00:00:00.00 bitrate=N/A speed=   0x elapsed=0:00:22.91    \nframe=    1 fps=0.0 q=25.0 size=       1KiB time=00:00:00.00 bitrate=N/A speed=   0x elapsed=0:00:23.49    \nframe=    1 fps=0.0 q=25.0 size=       1KiB time=00:00:00.00 bitrate=N/A speed=   0x elapsed=0:00:24.07    \nframe=    1 fps=0.0 q=25.0 size=       1KiB time=00:00:00.00 bitrate=N/A speed=   0x elapsed=0:00:24.65    \nframe=    1 fps=0.0 q=25.0 size=       1KiB time=00:00:00.00 bitrate=N/A speed=   0x elapsed=0:00:25.22    \nframe=    1 fps=0.0 q=25.0 size=       1KiB time=00:00:00.00 bitrate=N/A speed=   0x elapsed=0:00:25.81    \nframe=    1 fps=0.0 q=25.0 size=       1KiB time=00:00:00.00 bitrate=N/A speed=   0x elapsed=0:00:26.38    \nframe=    1 fps=0.0 q=25.0 size=       1KiB time=00:00:00.00 bitrate=N/A speed=   0x elapsed=0:00:26.94    \nframe=    1 fps=0.0 q=25.0 size=       1KiB time=00:00:00.00 bitrate=N/A speed=   0x elapsed=0:00:27.53    \nframe=    1 fps=0.0 q=25.0 size=       1KiB time=00:00:00.00 bitrate=N/A speed=   0x elapsed=0:00:28.14    \nframe=    1 fps=0.0 q=25.0 size=       1KiB time=00:00:00.00 bitrate=N/A speed=   0x elapsed=0:00:28.75    \nframe=    1 fps=0.0 q=25.0 size=       1KiB time=00:00:00.00 bitrate=N/A speed=   0x elapsed=0:00:29.37    \nframe=    1 fps=0.0 q=25.0 size=       1KiB time=00:00:00.00 bitrate=N/A speed=   0x elapsed=0:00:29.98    \nframe=    2 fps=0.1 q=54.0 size=       1KiB time=00:00:00.00 bitrate= 537.6kbits/s speed=0.000273x elapsed=0:00:30.57    \nframe=    3 fps=0.1 q=51.0 size=       1KiB time=00:00:00.01 bitrate= 268.8kbits/s speed=0.000535x elapsed=0:00:31.16    \nframe=    3 fps=0.1 q=51.0 size=       1KiB time=00:00:00.01 bitrate= 268.8kbits/s speed=0.000525x elapsed=0:00:31.75    \nframe=    4 fps=0.1 q=54.0 size=       1KiB time=00:00:00.01 bitrate= 268.8kbits/s speed=0.000515x elapsed=0:00:32.33    \nframe=    5 fps=0.2 q=49.0 size=       1KiB time=00:00:00.03 bitrate= 134.4kbits/s speed=0.00101x elapsed=0:00:32.90    \nframe=    6 fps=0.2 q=54.0 size=       1KiB time=00:00:00.04 bitrate= 107.5kbits/s speed=0.00125x elapsed=0:00:33.45    \nframe=    7 fps=0.2 q=50.0 size=       1KiB time=00:00:00.05 bitrate=  89.6kbits/s speed=0.00147x elapsed=0:00:34.00    \nframe=    8 fps=0.2 q=50.0 size=       1KiB time=00:00:00.05 bitrate=  76.8kbits/s speed=0.00169x elapsed=0:00:34.56    \nframe=    9 fps=0.3 q=46.0 size=       1KiB time=00:00:00.06 bitrate=  67.2kbits/s speed=0.0019x elapsed=0:00:35.16    \nframe=   10 fps=0.3 q=49.0 size=       1KiB time=00:00:00.07 bitrate=  59.7kbits/s speed=0.0021x elapsed=0:00:35.76    \nframe=   10 fps=0.3 q=49.0 size=       1KiB time=00:00:00.07 bitrate=  59.7kbits/s speed=0.00206x elapsed=0:00:36.35    \nframe=   11 fps=0.3 q=50.0 size=       1KiB time=00:00:00.08 bitrate=  53.8kbits/s speed=0.00226x elapsed=0:00:36.92    \nframe=   12 fps=0.3 q=46.0 size=       1KiB time=00:00:00.09 bitrate=  48.9kbits/s speed=0.00244x elapsed=0:00:37.50    \nframe=   12 fps=0.3 q=46.0 size=       1KiB time=00:00:00.09 bitrate=  48.9kbits/s speed=0.00241x elapsed=0:00:38.09    \nframe=   14 fps=0.4 q=48.0 size=       1KiB time=00:00:00.10 bitrate=  41.4kbits/s speed=0.0028x elapsed=0:00:38.71    \nframe=   15 fps=0.4 q=50.0 size=       1KiB time=00:00:00.11 bitrate=  38.4kbits/s speed=0.00297x elapsed=0:00:39.30    \nframe=   16 fps=0.4 q=48.0 size=       1KiB time=00:00:00.12 bitrate=  35.8kbits/s speed=0.00313x elapsed=0:00:39.87    \nframe=   17 fps=0.4 q=36.0 size=       1KiB time=00:00:00.13 bitrate=  33.6kbits/s speed=0.0033x elapsed=0:00:40.43    \nframe=   18 fps=0.4 q=47.0 size=       1KiB time=00:00:00.14 bitrate=  31.6kbits/s speed=0.00346x elapsed=0:00:41.00    \nframe=   18 fps=0.4 q=47.0 size=       1KiB time=00:00:00.14 bitrate=  31.6kbits/s speed=0.00341x elapsed=0:00:41.58    \nframe=   20 fps=0.5 q=47.0 size=       1KiB time=00:00:00.15 bitrate=  28.3kbits/s speed=0.00375x elapsed=0:00:42.19    \nframe=   21 fps=0.5 q=49.0 size=       1KiB time=00:00:00.16 bitrate=  26.9kbits/s speed=0.0039x elapsed=0:00:42.76    \nframe=   21 fps=0.5 q=49.0 size=       1KiB time=00:00:00.16 bitrate=  26.9kbits/s speed=0.00385x elapsed=0:00:43.32    \nframe=   22 fps=0.5 q=46.0 size=       1KiB time=00:00:00.17 bitrate=  25.6kbits/s speed=0.00399x elapsed=0:00:43.90    \nframe=   22 fps=0.5 q=46.0 size=       1KiB time=00:00:00.17 bitrate=  25.6kbits/s speed=0.00393x elapsed=0:00:44.49    \nframe=   23 fps=0.5 q=50.0 size=       1KiB time=00:00:00.18 bitrate=  24.4kbits/s speed=0.00407x elapsed=0:00:45.08    \nframe=   23 fps=0.5 q=50.0 size=       1KiB time=00:00:00.18 bitrate=  24.4kbits/s speed=0.00402x elapsed=0:00:45.65    \nframe=   24 fps=0.5 q=44.0 size=       1KiB time=00:00:00.19 bitrate=  23.4kbits/s speed=0.00415x elapsed=0:00:46.22    \nframe=   26 fps=0.6 q=45.0 size=       1KiB time=00:00:00.20 bitrate=  21.5kbits/s speed=0.00445x elapsed=0:00:46.81    \nframe=   27 fps=0.6 q=50.0 size=       1KiB time=00:00:00.20 bitrate=  21.5kbits/s speed=0.0044x elapsed=0:00:47.38    \nframe=   27 fps=0.6 q=50.0 size=       1KiB time=00:00:00.21 bitrate=  20.7kbits/s speed=0.00452x elapsed=0:00:47.96    \nframe=   28 fps=0.6 q=45.0 size=       1KiB time=00:00:00.22 bitrate=  19.9kbits/s speed=0.00464x elapsed=0:00:48.54    \nframe=   28 fps=0.6 q=45.0 size=       1KiB time=00:00:00.22 bitrate=  19.9kbits/s speed=0.00458x elapsed=0:00:49.12    \nframe=   30 fps=0.6 q=46.0 size=       1KiB time=00:00:00.24 bitrate=  18.5kbits/s speed=0.00486x elapsed=0:00:49.69    \nframe=   32 fps=0.6 q=45.0 size=       1KiB time=00:00:00.25 bitrate=  17.3kbits/s speed=0.00514x elapsed=0:00:50.25    \nframe=   32 fps=0.6 q=45.0 size=       1KiB time=00:00:00.25 bitrate=  17.3kbits/s speed=0.00508x elapsed=0:00:50.82    \nframe=   33 fps=0.6 q=31.0 size=       1KiB time=00:00:00.26 bitrate=  16.8kbits/s speed=0.00519x elapsed=0:00:51.40    \nframe=   35 fps=0.7 q=50.0 size=       1KiB time=00:00:00.28 bitrate=  15.8kbits/s speed=0.00545x elapsed=0:00:51.98    \nframe=   35 fps=0.7 q=50.0 size=       1KiB time=00:00:00.28 bitrate=  15.8kbits/s speed=0.00539x elapsed=0:00:52.57    \nframe=   36 fps=0.7 q=44.0 size=       1KiB time=00:00:00.29 bitrate=  15.4kbits/s speed=0.00549x elapsed=0:00:53.14    \nframe=   37 fps=0.7 q=49.0 size=       1KiB time=00:00:00.30 bitrate=  14.9kbits/s speed=0.00558x elapsed=0:00:53.71    \nframe=   37 fps=0.7 q=49.0 size=       1KiB time=00:00:00.30 bitrate=  14.9kbits/s speed=0.00553x elapsed=0:00:54.29    \nframe=   38 fps=0.7 q=45.0 size=       1KiB time=00:00:00.30 bitrate=  14.5kbits/s speed=0.00562x elapsed=0:00:54.88    \nframe=   38 fps=0.7 q=45.0 size=       1KiB time=00:00:00.30 bitrate=  14.5kbits/s speed=0.00556x elapsed=0:00:55.48    \nframe=   38 fps=0.7 q=45.0 size=       1KiB time=00:00:00.30 bitrate=  14.5kbits/s speed=0.0055x elapsed=0:00:56.07    \nframe=   39 fps=0.7 q=48.0 size=       1KiB time=00:00:00.31 bitrate=  14.1kbits/s speed=0.00559x elapsed=0:00:56.68    \nframe=   39 fps=0.7 q=48.0 size=       1KiB time=00:00:00.31 bitrate=  14.1kbits/s speed=0.00553x elapsed=0:00:57.28    \nframe=   40 fps=0.7 q=45.0 size=       1KiB time=00:00:00.32 bitrate=  13.8kbits/s speed=0.00562x elapsed=0:00:57.86    \nframe=   40 fps=0.7 q=45.0 size=       1KiB time=00:00:00.32 bitrate=  13.8kbits/s speed=0.00556x elapsed=0:00:58.45    \nframe=   41 fps=0.7 q=41.0 size=       1KiB time=00:00:00.33 bitrate=  13.4kbits/s speed=0.00565x elapsed=0:00:59.04    \nframe=   42 fps=0.7 q=45.0 size=       1KiB time=00:00:00.34 bitrate=  13.1kbits/s speed=0.00573x elapsed=0:00:59.63    \nframe=   43 fps=0.7 q=50.0 size=       1KiB time=00:00:00.35 bitrate=  12.8kbits/s speed=0.00581x elapsed=0:01:00.23    \nframe=   44 fps=0.7 q=45.0 size=       1KiB time=00:00:00.35 bitrate=  12.5kbits/s speed=0.00589x elapsed=0:01:00.83    \nframe=   44 fps=0.7 q=45.0 size=       1KiB time=00:00:00.35 bitrate=  12.5kbits/s speed=0.00583x elapsed=0:01:01.41    \nframe=   46 fps=0.7 q=45.0 size=       1KiB time=00:00:00.37 bitrate=  11.9kbits/s speed=0.00605x elapsed=0:01:02.01    \nframe=   48 fps=0.8 q=46.0 size=       1KiB time=00:00:00.39 bitrate=  11.4kbits/s speed=0.00626x elapsed=0:01:02.58    \nframe=   48 fps=0.8 q=46.0 size=       1KiB time=00:00:00.39 bitrate=  11.4kbits/s speed=0.0062x elapsed=0:01:03.16    \nframe=   49 fps=0.8 q=29.0 size=       1KiB time=00:00:00.40 bitrate=  11.2kbits/s speed=0.00628x elapsed=0:01:03.72    \nframe=   50 fps=0.8 q=45.0 size=       1KiB time=00:00:00.40 bitrate=  11.0kbits/s speed=0.00635x elapsed=0:01:04.31    \nframe=   50 fps=0.8 q=45.0 size=       1KiB time=00:00:00.40 bitrate=  11.0kbits/s speed=0.00629x elapsed=0:01:04.88    \nframe=   51 fps=0.8 q=49.0 size=       1KiB time=00:00:00.41 bitrate=  10.8kbits/s speed=0.00637x elapsed=0:01:05.44    \nframe=   52 fps=0.8 q=45.0 size=       1KiB time=00:00:00.42 bitrate=  10.5kbits/s speed=0.00644x elapsed=0:01:06.01    \nframe=   53 fps=0.8 q=48.0 size=       1KiB time=00:00:00.43 bitrate=  10.3kbits/s speed=0.00651x elapsed=0:01:06.57    \nframe=   54 fps=0.8 q=45.0 size=       1KiB time=00:00:00.44 bitrate=  10.1kbits/s speed=0.00658x elapsed=0:01:07.15    \nframe=   54 fps=0.8 q=45.0 size=       1KiB time=00:00:00.44 bitrate=  10.1kbits/s speed=0.00652x elapsed=0:01:07.75    \nframe=   55 fps=0.8 q=49.0 size=       1KiB time=00:00:00.45 bitrate=  10.0kbits/s speed=0.00658x elapsed=0:01:08.35    \nframe=   55 fps=0.8 q=49.0 size=       1KiB time=00:00:00.45 bitrate=  10.0kbits/s speed=0.00653x elapsed=0:01:08.92    \nframe=   55 fps=0.8 q=49.0 size=       1KiB time=00:00:00.45 bitrate=  10.0kbits/s speed=0.00647x elapsed=0:01:09.49    \nframe=   56 fps=0.8 q=45.0 size=       1KiB time=00:00:00.45 bitrate=   9.8kbits/s speed=0.00654x elapsed=0:01:10.08    \nframe=   58 fps=0.8 q=46.0 size=       1KiB time=00:00:00.47 bitrate=   9.4kbits/s speed=0.00672x elapsed=0:01:10.65    \nframe=   58 fps=0.8 q=46.0 size=       1KiB time=00:00:00.47 bitrate=   9.4kbits/s speed=0.00667x elapsed=0:01:11.21    \nframe=   59 fps=0.8 q=50.0 size=       1KiB time=00:00:00.48 bitrate=   9.3kbits/s speed=0.00673x elapsed=0:01:11.78    \nframe=   60 fps=0.8 q=45.0 size=       1KiB time=00:00:00.49 bitrate=   9.1kbits/s speed=0.00679x elapsed=0:01:12.35    \nframe=   61 fps=0.8 q=47.0 size=       1KiB time=00:00:00.50 bitrate=   9.0kbits/s speed=0.00685x elapsed=0:01:12.94    \nframe=   62 fps=0.8 q=46.0 size=       1KiB time=00:00:00.50 bitrate=   8.8kbits/s speed=0.00691x elapsed=0:01:13.52    \nframe=   63 fps=0.9 q=50.0 size=       1KiB time=00:00:00.51 bitrate=   8.7kbits/s speed=0.00697x elapsed=0:01:14.10    \nframe=   64 fps=0.9 q=45.0 size=       1KiB time=00:00:00.52 bitrate=   8.5kbits/s speed=0.00703x elapsed=0:01:14.66    \nframe=   65 fps=0.9 q=28.0 size=       1KiB time=00:00:00.53 bitrate=   8.4kbits/s speed=0.00709x elapsed=0:01:15.22    \nframe=   65 fps=0.9 q=28.0 size=       1KiB time=00:00:00.53 bitrate=   8.4kbits/s speed=0.00704x elapsed=0:01:15.78    \nframe=   67 fps=0.9 q=51.0 size=       1KiB time=00:00:00.55 bitrate=   8.1kbits/s speed=0.0072x elapsed=0:01:16.34    \nframe=   67 fps=0.9 q=51.0 size=       1KiB time=00:00:00.55 bitrate=   8.1kbits/s speed=0.00715x elapsed=0:01:16.91    \nframe=   68 fps=0.9 q=46.0 size=       1KiB time=00:00:00.55 bitrate=   8.0kbits/s speed=0.0072x elapsed=0:01:17.50    \nframe=   69 fps=0.9 q=49.0 size=       1KiB time=00:00:00.56 bitrate=   7.9kbits/s speed=0.00726x elapsed=0:01:18.10    \nframe=   69 fps=0.9 q=49.0 size=       1KiB time=00:00:00.56 bitrate=   7.9kbits/s speed=0.0072x elapsed=0:01:18.68    \nframe=   70 fps=0.9 q=46.0 size=       1KiB time=00:00:00.57 bitrate=   7.8kbits/s speed=0.00726x elapsed=0:01:19.24    \nframe=   71 fps=0.9 q=51.0 size=       1KiB time=00:00:00.58 bitrate=   7.7kbits/s speed=0.00731x elapsed=0:01:19.82    \nframe=   71 fps=0.9 q=51.0 size=       1KiB time=00:00:00.58 bitrate=   7.7kbits/s speed=0.00725x elapsed=0:01:20.41    \nframe=   72 fps=0.9 q=46.0 size=       1KiB time=00:00:00.58 bitrate=   7.7kbits/s speed=0.0072x elapsed=0:01:21.00    \nframe=   72 fps=0.9 q=46.0 size=       1KiB time=00:00:00.59 bitrate=   7.6kbits/s speed=0.00725x elapsed=0:01:21.58    \nframe=   74 fps=0.9 q=46.0 size=       1KiB time=00:00:00.60 bitrate=   7.4kbits/s speed=0.0074x elapsed=0:01:22.15    \nframe=   75 fps=0.9 q=50.0 size=       1KiB time=00:00:00.61 bitrate=   7.3kbits/s speed=0.00745x elapsed=0:01:22.72    \nframe=   76 fps=0.9 q=45.0 size=       1KiB time=00:00:00.62 bitrate=   7.2kbits/s speed=0.0075x elapsed=0:01:23.29    \nframe=   77 fps=0.9 q=47.0 size=       1KiB time=00:00:00.63 bitrate=   7.1kbits/s speed=0.00755x elapsed=0:01:23.86    \nframe=   79 fps=0.9 q=50.0 size=       1KiB time=00:00:00.65 bitrate=   6.9kbits/s speed=0.0077x elapsed=0:01:24.41    \nframe=   79 fps=0.9 q=50.0 size=       1KiB time=00:00:00.65 bitrate=   6.9kbits/s speed=0.00765x elapsed=0:01:24.98    \nframe=   80 fps=0.9 q=45.0 size=       1KiB time=00:00:00.65 bitrate=   6.8kbits/s speed=0.00769x elapsed=0:01:25.56    \nframe=   80 fps=0.9 q=45.0 size=       1KiB time=00:00:00.65 bitrate=   6.8kbits/s speed=0.00764x elapsed=0:01:26.15    \nframe=   81 fps=0.9 q=26.0 size=       1KiB time=00:00:00.66 bitrate=   6.7kbits/s speed=0.00769x elapsed=0:01:26.73    \nframe=   83 fps=1.0 q=49.0 size=       1KiB time=00:00:00.68 bitrate=   6.6kbits/s speed=0.00783x elapsed=0:01:27.29    \nframe=   83 fps=0.9 q=49.0 size=       1KiB time=00:00:00.68 bitrate=   6.6kbits/s speed=0.00778x elapsed=0:01:27.85    \nframe=   84 fps=0.9 q=44.0 size=       1KiB time=00:00:00.69 bitrate=   6.5kbits/s speed=0.00782x elapsed=0:01:28.42    \nframe=   84 fps=0.9 q=44.0 size=       1KiB time=00:00:00.69 bitrate=   6.5kbits/s speed=0.00777x elapsed=0:01:28.98    \nframe=   85 fps=0.9 q=49.0 size=       1KiB time=00:00:00.70 bitrate=   6.4kbits/s speed=0.00782x elapsed=0:01:29.53    \nframe=   86 fps=1.0 q=44.0 size=       1KiB time=00:00:00.70 bitrate=   6.3kbits/s speed=0.00786x elapsed=0:01:30.11    \nframe=   86 fps=0.9 q=44.0 size=       1KiB time=00:00:00.70 bitrate=   6.3kbits/s speed=0.00781x elapsed=0:01:30.67    \nframe=   87 fps=1.0 q=48.0 size=       1KiB time=00:00:00.71 bitrate=   6.3kbits/s speed=0.00786x elapsed=0:01:31.22    \nframe=   87 fps=0.9 q=48.0 size=       1KiB time=00:00:00.71 bitrate=   6.3kbits/s speed=0.00781x elapsed=0:01:31.79    \nframe=   89 fps=1.0 q=37.0 size=       1KiB time=00:00:00.72 bitrate=   6.2kbits/s speed=0.00785x elapsed=0:01:32.34    \nframe=   91 fps=1.0 q=49.0 size=       1KiB time=00:00:00.74 bitrate=   6.0kbits/s speed=0.00798x elapsed=0:01:32.90    \nframe=   91 fps=1.0 q=49.0 size=       1KiB time=00:00:00.75 bitrate=   6.0kbits/s speed=0.00803x elapsed=0:01:33.44    \nframe=   92 fps=1.0 q=46.0 size=       1KiB time=00:00:00.75 bitrate=   5.9kbits/s speed=0.00807x elapsed=0:01:34.01    \nframe=   92 fps=1.0 q=46.0 size=       1KiB time=00:00:00.75 bitrate=   5.9kbits/s speed=0.00802x elapsed=0:01:34.59    \nframe=   94 fps=1.0 q=46.0 size=       1KiB time=00:00:00.77 bitrate=   5.8kbits/s speed=0.00814x elapsed=0:01:35.18    \nframe=   94 fps=1.0 q=46.0 size=       1KiB time=00:00:00.77 bitrate=   5.8kbits/s speed=0.00809x elapsed=0:01:35.78    \nframe=   96 fps=1.0 q=46.0 size=       1KiB time=00:00:00.79 bitrate=   5.7kbits/s speed=0.00822x elapsed=0:01:36.35    \nframe=   97 fps=1.0 q=26.0 size=       1KiB time=00:00:00.80 bitrate=   5.6kbits/s speed=0.00825x elapsed=0:01:36.91    \nframe=   98 fps=1.0 q=46.0 size=       1KiB time=00:00:00.80 bitrate=   5.5kbits/s speed=0.00829x elapsed=0:01:37.48    \nframe=   98 fps=1.0 q=46.0 size=       1KiB time=00:00:00.80 bitrate=   5.5kbits/s speed=0.00824x elapsed=0:01:38.05    \nframe=  100 fps=1.0 q=46.0 size=       1KiB time=00:00:00.82 bitrate=   5.4kbits/s speed=0.00836x elapsed=0:01:38.62    \nframe=  101 fps=1.0 q=49.0 size=       1KiB time=00:00:00.83 bitrate=   5.4kbits/s speed=0.0084x elapsed=0:01:39.20    \nframe=  102 fps=1.0 q=47.0 size=       1KiB time=00:00:00.84 bitrate=   5.3kbits/s speed=0.00844x elapsed=0:01:39.77    \nframe=  102 fps=1.0 q=47.0 size=       1KiB time=00:00:00.84 bitrate=   5.3kbits/s speed=0.00839x elapsed=0:01:40.31    \nframe=  103 fps=1.0 q=50.0 size=       1KiB time=00:00:00.85 bitrate=   5.3kbits/s speed=0.00843x elapsed=0:01:40.88    \nframe=  103 fps=1.0 q=50.0 size=       1KiB time=00:00:00.85 bitrate=   5.3kbits/s speed=0.00838x elapsed=0:01:41.47    \nframe=  104 fps=1.0 q=47.0 size=       1KiB time=00:00:00.85 bitrate=   5.2kbits/s speed=0.00841x elapsed=0:01:42.04    \nframe=  106 fps=1.0 q=47.0 size=       1KiB time=00:00:00.85 bitrate=   5.2kbits/s speed=0.00837x elapsed=0:01:42.59    \nframe=  106 fps=1.0 q=47.0 size=       1KiB time=00:00:00.87 bitrate=   5.1kbits/s speed=0.00848x elapsed=0:01:43.16    \nframe=  107 fps=1.0 q=51.0 size=       1KiB time=00:00:00.88 bitrate=   5.1kbits/s speed=0.00851x elapsed=0:01:43.74    \nframe=  107 fps=1.0 q=51.0 size=       1KiB time=00:00:00.88 bitrate=   5.1kbits/s speed=0.00847x elapsed=0:01:44.31    \nframe=  108 fps=1.0 q=47.0 size=       1KiB time=00:00:00.89 bitrate=   5.0kbits/s speed=0.0085x elapsed=0:01:44.86    \nframe=  109 fps=1.0 q=48.0 size=       1KiB time=00:00:00.90 bitrate=   5.0kbits/s speed=0.00854x elapsed=0:01:45.42    \nframe=  111 fps=1.0 q=50.0 size=       1KiB time=00:00:00.91 bitrate=   4.9kbits/s speed=0.00865x elapsed=0:01:46.00    \nframe=  112 fps=1.1 q=48.0 size=       1KiB time=00:00:00.92 bitrate=   4.8kbits/s speed=0.00868x elapsed=0:01:46.55    \nframe=  113 fps=1.1 q=26.0 size=       1KiB time=00:00:00.93 bitrate=   4.8kbits/s speed=0.00871x elapsed=0:01:47.11    \nframe=  114 fps=1.1 q=47.0 size=       1KiB time=00:00:00.94 bitrate=   4.8kbits/s speed=0.00874x elapsed=0:01:47.68    \nframe=  115 fps=1.1 q=51.0 size=       1KiB time=00:00:00.95 bitrate=   4.7kbits/s speed=0.00878x elapsed=0:01:48.24    \nframe=  115 fps=1.1 q=51.0 size=       1KiB time=00:00:00.95 bitrate=   4.7kbits/s speed=0.00873x elapsed=0:01:48.80    \nframe=  116 fps=1.1 q=47.0 size=       1KiB time=00:00:00.95 bitrate=   4.7kbits/s speed=0.00876x elapsed=0:01:49.37    \nframe=  117 fps=1.1 q=49.0 size=       1KiB time=00:00:00.96 bitrate=   4.6kbits/s speed=0.00879x elapsed=0:01:49.96    \nframe=  117 fps=1.1 q=49.0 size=       1KiB time=00:00:00.96 bitrate=   4.6kbits/s speed=0.00874x elapsed=0:01:50.55    \nframe=  118 fps=1.1 q=47.0 size=       1KiB time=00:00:00.97 bitrate=   4.6kbits/s speed=0.00878x elapsed=0:01:51.10    \nframe=  118 fps=1.1 q=47.0 size=       1KiB time=00:00:00.97 bitrate=   4.6kbits/s speed=0.00873x elapsed=0:01:51.69    \nframe=  119 fps=1.1 q=49.0 size=       1KiB time=00:00:00.98 bitrate=   4.6kbits/s speed=0.00876x elapsed=0:01:52.23    \nframe=  120 fps=1.1 q=48.0 size=       1KiB time=00:00:00.99 bitrate=   4.5kbits/s speed=0.00879x elapsed=0:01:52.82    \nframe=  122 fps=1.1 q=50.0 size=       1KiB time=00:00:01.00 bitrate=   4.4kbits/s speed=0.00889x elapsed=0:01:53.38    \nframe=  123 fps=1.1 q=52.0 size=       1KiB time=00:00:01.01 bitrate=   4.4kbits/s speed=0.00892x elapsed=0:01:53.96    \nframe=  123 fps=1.1 q=52.0 size=       1KiB time=00:00:01.01 bitrate=   4.4kbits/s speed=0.00887x elapsed=0:01:54.55    \nframe=  124 fps=1.1 q=50.0 size=       1KiB time=00:00:01.02 bitrate=   4.4kbits/s speed=0.0089x elapsed=0:01:55.17    \nframe=  126 fps=1.1 q=50.0 size=       1KiB time=00:00:01.04 bitrate=   4.3kbits/s speed=0.009x elapsed=0:01:55.74    \nframe=  128 fps=1.1 q=50.0 size=       1KiB time=00:00:01.05 bitrate=   4.2kbits/s speed=0.0091x elapsed=0:01:56.31    \nframe=  129 fps=1.1 q=26.0 size=       1KiB time=00:00:01.06 bitrate=   4.2kbits/s speed=0.00912x elapsed=0:01:56.89    \nframe=  130 fps=1.1 q=51.0 size=       1KiB time=00:00:01.07 bitrate=   4.2kbits/s speed=0.00915x elapsed=0:01:57.47    \nframe=  131 fps=1.1 q=51.0 size=       1KiB time=00:00:01.08 bitrate=   4.1kbits/s speed=0.00918x elapsed=0:01:58.06    \nframe=  132 fps=1.1 q=51.0 size=       1KiB time=00:00:01.09 bitrate=   4.1kbits/s speed=0.0092x elapsed=0:01:58.64    \nframe=  134 fps=1.1 q=51.0 size=       1KiB time=00:00:01.10 bitrate=   4.0kbits/s speed=0.0093x elapsed=0:01:59.20    \nframe=  134 fps=1.1 q=51.0 size=       1KiB time=00:00:01.10 bitrate=   4.0kbits/s speed=0.00925x elapsed=0:01:59.75    \nframe=  135 fps=1.1 q=51.0 size=       1KiB time=00:00:01.11 bitrate=   4.0kbits/s speed=0.00928x elapsed=0:02:00.32    \nframe=  135 fps=1.1 q=51.0 size=       1KiB time=00:00:01.11 bitrate=   4.0kbits/s speed=0.00924x elapsed=0:02:00.91    \nframe=  136 fps=1.1 q=51.0 size=       1KiB time=00:00:01.12 bitrate=   4.0kbits/s speed=0.00926x elapsed=0:02:01.48    \nframe=  138 fps=1.1 q=52.0 size=       1KiB time=00:00:01.14 bitrate=   3.9kbits/s speed=0.00935x elapsed=0:02:02.05    \nframe=  139 fps=1.1 q=51.0 size=       1KiB time=00:00:01.15 bitrate=   3.9kbits/s speed=0.00938x elapsed=0:02:02.63    \nframe=  141 fps=1.1 q=49.0 size=       1KiB time=00:00:01.16 bitrate=   3.8kbits/s speed=0.00947x elapsed=0:02:03.17    \nframe=  143 fps=1.2 q=51.0 size=       1KiB time=00:00:01.18 bitrate=   3.8kbits/s speed=0.00956x elapsed=0:02:03.74    \nframe=  144 fps=1.2 q=53.0 size=       1KiB time=00:00:01.19 bitrate=   3.8kbits/s speed=0.00958x elapsed=0:02:04.34    \nframe=  145 fps=1.2 q=27.0 size=       1KiB time=00:00:01.20 bitrate=   3.7kbits/s speed=0.00961x elapsed=0:02:04.92    \nframe=  146 fps=1.2 q=54.0 size=       1KiB time=00:00:01.20 bitrate=   3.7kbits/s speed=0.00963x elapsed=0:02:05.49    \nframe=  146 fps=1.2 q=54.0 size=       1KiB time=00:00:01.20 bitrate=   3.7kbits/s speed=0.00959x elapsed=0:02:06.05    \nframe=  147 fps=1.2 q=52.0 size=       1KiB time=00:00:01.21 bitrate=   3.7kbits/s speed=0.00961x elapsed=0:02:06.62    \nframe=  149 fps=1.2 q=50.0 size=       1KiB time=00:00:01.23 bitrate=   3.6kbits/s speed=0.0097x elapsed=0:02:07.20    \nframe=  150 fps=1.2 q=54.0 size=       1KiB time=00:00:01.24 bitrate=   3.6kbits/s speed=0.00972x elapsed=0:02:07.79    \nframe=  150 fps=1.2 q=54.0 size=       1KiB time=00:00:01.24 bitrate=   3.6kbits/s speed=0.00967x elapsed=0:02:08.35    \nframe=  150 fps=1.2 q=54.0 size=       1KiB time=00:00:01.24 bitrate=   3.6kbits/s speed=0.00963x elapsed=0:02:08.91    \nframe=  151 fps=1.2 q=53.0 size=       1KiB time=00:00:01.25 bitrate=   3.6kbits/s speed=0.00965x elapsed=0:02:09.49    \nframe=  151 fps=1.2 q=53.0 size=       1KiB time=00:00:01.25 bitrate=   3.6kbits/s speed=0.00961x elapsed=0:02:10.06    \nframe=  152 fps=1.2 q=54.0 size=       1KiB time=00:00:01.25 bitrate=   3.6kbits/s speed=0.00963x elapsed=0:02:10.64    \nframe=  153 fps=1.2 q=41.0 size=       1KiB time=00:00:01.26 bitrate=   3.5kbits/s speed=0.00965x elapsed=0:02:11.25    \nframe=  154 fps=1.2 q=55.0 size=       1KiB time=00:00:01.27 bitrate=   3.5kbits/s speed=0.00967x elapsed=0:02:11.82    \nframe=  154 fps=1.2 q=55.0 size=       1KiB time=00:00:01.27 bitrate=   3.5kbits/s speed=0.00963x elapsed=0:02:12.39    \nframe=  155 fps=1.2 q=53.0 size=       1KiB time=00:00:01.28 bitrate=   3.5kbits/s speed=0.00965x elapsed=0:02:12.98    \nframe=  155 fps=1.2 q=53.0 size=       1KiB time=00:00:01.28 bitrate=   3.5kbits/s speed=0.00961x elapsed=0:02:13.56    \nframe=  156 fps=1.2 q=50.0 size=       1KiB time=00:00:01.29 bitrate=   3.5kbits/s speed=0.00963x elapsed=0:02:14.16    \nframe=  157 fps=1.2 q=49.0 size=       1KiB time=00:00:01.30 bitrate=   3.4kbits/s speed=0.00965x elapsed=0:02:14.74    \nframe=  157 fps=1.2 q=49.0 size=       1KiB time=00:00:01.30 bitrate=   3.4kbits/s speed=0.0096x elapsed=0:02:15.35    \nframe=  159 fps=1.2 q=51.0 size=       1KiB time=00:00:01.31 bitrate=   3.4kbits/s speed=0.00969x elapsed=0:02:15.90    \nframe=  160 fps=1.2 q=53.0 size=       1KiB time=00:00:01.31 bitrate=   3.4kbits/s speed=0.00965x elapsed=0:02:16.46    \nframe=  161 fps=1.2 q=30.0 size=       1KiB time=00:00:01.33 bitrate=   3.4kbits/s speed=0.00973x elapsed=0:02:17.02    \nframe=  162 fps=1.2 q=54.0 size=       1KiB time=00:00:01.34 bitrate=   3.3kbits/s speed=0.00975x elapsed=0:02:17.57    \nframe=  163 fps=1.2 q=53.0 size=       1KiB time=00:00:01.35 bitrate=   3.3kbits/s speed=0.00977x elapsed=0:02:18.13    \nframe=  163 fps=1.2 q=53.0 size=       1KiB time=00:00:01.35 bitrate=   3.3kbits/s speed=0.00973x elapsed=0:02:18.69    \nframe=  164 fps=1.2 q=54.0 size=       1KiB time=00:00:01.35 bitrate=   3.3kbits/s speed=0.00975x elapsed=0:02:19.25    \nframe=  165 fps=1.2 q=50.0 size=       1KiB time=00:00:01.36 bitrate=   3.3kbits/s speed=0.00977x elapsed=0:02:19.82    \nframe=  165 fps=1.2 q=50.0 size=       1KiB time=00:00:01.36 bitrate=   3.3kbits/s speed=0.00973x elapsed=0:02:20.40    \nframe=  166 fps=1.2 q=53.0 size=       1KiB time=00:00:01.37 bitrate=   3.3kbits/s speed=0.00975x elapsed=0:02:20.96    \nframe=  166 fps=1.2 q=53.0 size=       1KiB time=00:00:01.37 bitrate=   3.3kbits/s speed=0.00972x elapsed=0:02:21.52    \nframe=  167 fps=1.2 q=50.0 size=       1KiB time=00:00:01.38 bitrate=   3.2kbits/s speed=0.00973x elapsed=0:02:22.09    \nframe=  167 fps=1.2 q=50.0 size=       1KiB time=00:00:01.38 bitrate=   3.2kbits/s speed=0.00969x elapsed=0:02:22.70    \nframe=  167 fps=1.2 q=50.0 size=       1KiB time=00:00:01.38 bitrate=   3.2kbits/s speed=0.00965x elapsed=0:02:23.28    \nframe=  169 fps=1.2 q=44.0 size=       1KiB time=00:00:01.40 bitrate=   3.2kbits/s speed=0.00973x elapsed=0:02:23.86    \nframe=  170 fps=1.2 q=54.0 size=       1KiB time=00:00:01.40 bitrate=   3.2kbits/s speed=0.00975x elapsed=0:02:24.47    \nframe=  171 fps=1.2 q=52.0 size=       1KiB time=00:00:01.41 bitrate=   3.2kbits/s speed=0.00977x elapsed=0:02:25.07    \nframe=  171 fps=1.2 q=52.0 size=       1KiB time=00:00:01.41 bitrate=   3.2kbits/s speed=0.00973x elapsed=0:02:25.66    \nframe=  172 fps=1.2 q=50.0 size=       1KiB time=00:00:01.42 bitrate=   3.1kbits/s speed=0.00974x elapsed=0:02:26.26    \nframe=  172 fps=1.2 q=50.0 size=       1KiB time=00:00:01.42 bitrate=   3.1kbits/s speed=0.0097x elapsed=0:02:26.85    \nframe=  174 fps=1.2 q=53.0 size=       1KiB time=00:00:01.44 bitrate=   3.1kbits/s speed=0.00978x elapsed=0:02:27.43    \nframe=  175 fps=1.2 q=51.0 size=       1KiB time=00:00:01.45 bitrate=   3.1kbits/s speed=0.0098x elapsed=0:02:28.00    \nframe=  176 fps=1.2 q=53.0 size=       1KiB time=00:00:01.45 bitrate=   3.1kbits/s speed=0.00982x elapsed=0:02:28.55    \nframe=  178 fps=1.2 q=54.0 size=       1KiB time=00:00:01.47 bitrate=   3.0kbits/s speed=0.00989x elapsed=0:02:29.13    \nframe=  178 fps=1.2 q=54.0 size=       1KiB time=00:00:01.47 bitrate=   3.0kbits/s speed=0.00985x elapsed=0:02:29.70    \nframe=  179 fps=1.2 q=53.0 size=       1KiB time=00:00:01.48 bitrate=   3.0kbits/s speed=0.00987x elapsed=0:02:30.26    \nframe=  179 fps=1.2 q=53.0 size=       1KiB time=00:00:01.48 bitrate=   3.0kbits/s speed=0.00983x elapsed=0:02:30.83    \nframe=  180 fps=1.2 q=47.0 size=       1KiB time=00:00:01.49 bitrate=   3.0kbits/s speed=0.00985x elapsed=0:02:31.45    \nframe=  181 fps=1.2 q=50.0 size=       1KiB time=00:00:01.50 bitrate=   3.0kbits/s speed=0.00987x elapsed=0:02:32.03    \nframe=  182 fps=1.2 q=52.0 size=       1KiB time=00:00:01.50 bitrate=   3.0kbits/s speed=0.00988x elapsed=0:02:32.59    \nframe=  182 fps=1.2 q=52.0 size=       1KiB time=00:00:01.50 bitrate=   3.0kbits/s speed=0.00985x elapsed=0:02:33.16    \nframe=  182 fps=1.2 q=52.0 size=       1KiB time=00:00:01.50 bitrate=   3.0kbits/s speed=0.00981x elapsed=0:02:33.74    \nframe=  183 fps=1.2 q=49.0 size=       1KiB time=00:00:01.51 bitrate=   3.0kbits/s speed=0.00983x elapsed=0:02:34.34    \nframe=  183 fps=1.2 q=49.0 size=       1KiB time=00:00:01.51 bitrate=   3.0kbits/s speed=0.00979x elapsed=0:02:34.96    \nframe=  184 fps=1.2 q=52.0 size=       1KiB time=00:00:01.51 bitrate=   3.0kbits/s speed=0.00975x elapsed=0:02:35.58    \nframe=  184 fps=1.2 q=52.0 size=       1KiB time=00:00:01.52 bitrate=   2.9kbits/s speed=0.00976x elapsed=0:02:36.20    \nframe=  186 fps=1.2 q=54.0 size=       1KiB time=00:00:01.53 bitrate=   2.9kbits/s speed=0.00978x elapsed=0:02:36.83    \nframe=  187 fps=1.2 q=52.0 size=       1KiB time=00:00:01.55 bitrate=   2.9kbits/s speed=0.00985x elapsed=0:02:37.43    \nframe=  187 fps=1.2 q=52.0 size=       1KiB time=00:00:01.55 bitrate=   2.9kbits/s speed=0.00981x elapsed=0:02:38.00    \nframe=  188 fps=1.2 q=54.0 size=       1KiB time=00:00:01.55 bitrate=   2.9kbits/s speed=0.00983x elapsed=0:02:38.60    \nframe=  189 fps=1.2 q=48.0 size=       1KiB time=00:00:01.56 bitrate=   2.9kbits/s speed=0.00984x elapsed=0:02:39.18    \nframe=  191 fps=1.2 q=51.0 size=       1KiB time=00:00:01.57 bitrate=   2.8kbits/s speed=0.00986x elapsed=0:02:39.75    \nframe=  191 fps=1.2 q=51.0 size=       1KiB time=00:00:01.58 bitrate=   2.8kbits/s speed=0.00988x elapsed=0:02:40.32    \nframe=  192 fps=1.2 q=54.0 size=       1KiB time=00:00:01.59 bitrate=   2.8kbits/s speed=0.00989x elapsed=0:02:40.89    \nframe=  193 fps=1.2 q=34.0 size=       1KiB time=00:00:01.60 bitrate=   2.8kbits/s speed=0.00991x elapsed=0:02:41.48    \nframe=  194 fps=1.2 q=55.0 size=       1KiB time=00:00:01.60 bitrate=   2.8kbits/s speed=0.00992x elapsed=0:02:42.05    \nframe=  194 fps=1.2 q=55.0 size=       1KiB time=00:00:01.60 bitrate=   2.8kbits/s speed=0.00989x elapsed=0:02:42.62    \nframe=  196 fps=1.2 q=55.0 size=       1KiB time=00:00:01.62 bitrate=   2.8kbits/s speed=0.00996x elapsed=0:02:43.17    \nframe=  197 fps=1.2 q=50.0 size=       1KiB time=00:00:01.63 bitrate=   2.7kbits/s speed=0.00998x elapsed=0:02:43.72    \nframe=  198 fps=1.2 q=55.0 size=       1KiB time=00:00:01.64 bitrate=   2.7kbits/s speed=0.00999x elapsed=0:02:44.25    \nframe=  199 fps=1.2 q=53.0 size=       1KiB time=00:00:01.65 bitrate=   2.7kbits/s speed=0.01x elapsed=0:02:44.81    \nframe=  199 fps=1.2 q=53.0 size=       1KiB time=00:00:01.65 bitrate=   2.7kbits/s speed=0.00998x elapsed=0:02:45.38    \nframe=  200 fps=1.2 q=48.0 size=       1KiB time=00:00:01.65 bitrate=   2.7kbits/s speed=0.00999x elapsed=0:02:45.97    \nframe=  202 fps=1.2 q=55.0 size=       1KiB time=00:00:01.67 bitrate=   2.7kbits/s speed=0.0101x elapsed=0:02:46.54    \nframe=  203 fps=1.2 q=53.0 size=       1KiB time=00:00:01.68 bitrate=   2.7kbits/s speed=0.0101x elapsed=0:02:47.13    \nframe=  203 fps=1.2 q=53.0 size=       1KiB time=00:00:01.68 bitrate=   2.7kbits/s speed=0.01x elapsed=0:02:47.69    \nframe=  204 fps=1.2 q=51.0 size=       1KiB time=00:00:01.69 bitrate=   2.6kbits/s speed=0.0101x elapsed=0:02:48.24    \nframe=  205 fps=1.2 q=49.0 size=       1KiB time=00:00:01.70 bitrate=   2.6kbits/s speed=0.0101x elapsed=0:02:48.82    \nframe=  207 fps=1.2 q=51.0 size=       1KiB time=00:00:01.71 bitrate=   2.6kbits/s speed=0.0101x elapsed=0:02:49.41    \nframe=  207 fps=1.2 q=51.0 size=       1KiB time=00:00:01.71 bitrate=   2.6kbits/s speed=0.0101x elapsed=0:02:50.02    \nframe=  208 fps=1.2 q=54.0 size=       1KiB time=00:00:01.72 bitrate=   2.6kbits/s speed=0.0101x elapsed=0:02:50.60    \nframe=  209 fps=1.2 q=33.0 size=       1KiB time=00:00:01.73 bitrate=   2.6kbits/s speed=0.0101x elapsed=0:02:51.22    \nframe=  209 fps=1.2 q=33.0 size=       1KiB time=00:00:01.73 bitrate=   2.6kbits/s speed=0.0101x elapsed=0:02:51.80    \nframe=  211 fps=1.2 q=54.0 size=       1KiB time=00:00:01.75 bitrate=   2.6kbits/s speed=0.0102x elapsed=0:02:52.38    \nframe=  211 fps=1.2 q=54.0 size=       1KiB time=00:00:01.75 bitrate=   2.6kbits/s speed=0.0101x elapsed=0:02:52.95    \nframe=  212 fps=1.2 q=55.0 size=       1KiB time=00:00:01.75 bitrate=   2.5kbits/s speed=0.0101x elapsed=0:02:53.53    \nframe=  213 fps=1.2 q=51.0 size=       1KiB time=00:00:01.76 bitrate=   2.5kbits/s speed=0.0101x elapsed=0:02:54.11    \nframe=  214 fps=1.2 q=55.0 size=       1KiB time=00:00:01.77 bitrate=   2.5kbits/s speed=0.0102x elapsed=0:02:54.69    \nframe=  214 fps=1.2 q=55.0 size=       1KiB time=00:00:01.77 bitrate=   2.5kbits/s speed=0.0101x elapsed=0:02:55.28    \nframe=  215 fps=1.2 q=54.0 size=       1KiB time=00:00:01.78 bitrate=   2.5kbits/s speed=0.0101x elapsed=0:02:55.89    \nframe=  215 fps=1.2 q=54.0 size=       1KiB time=00:00:01.78 bitrate=   2.5kbits/s speed=0.0101x elapsed=0:02:56.48    \nframe=  216 fps=1.2 q=55.0 size=       1KiB time=00:00:01.79 bitrate=   2.5kbits/s speed=0.0101x elapsed=0:02:57.08    \nframe=  218 fps=1.2 q=55.0 size=       1KiB time=00:00:01.80 bitrate=   2.5kbits/s speed=0.0102x elapsed=0:02:57.68    \nframe=  219 fps=1.2 q=53.0 size=       1KiB time=00:00:01.81 bitrate=   2.5kbits/s speed=0.0102x elapsed=0:02:58.26    \nframe=  219 fps=1.2 q=53.0 size=       1KiB time=00:00:01.81 bitrate=   2.5kbits/s speed=0.0102x elapsed=0:02:58.87    \nframe=  220 fps=1.2 q=55.0 size=       1KiB time=00:00:01.82 bitrate=   2.5kbits/s speed=0.0102x elapsed=0:02:59.47    \nframe=  221 fps=1.2 q=49.0 size=       1KiB time=00:00:01.83 bitrate=   2.4kbits/s speed=0.0102x elapsed=0:03:00.06    \nframe=  223 fps=1.2 q=52.0 size=       1KiB time=00:00:01.84 bitrate=   2.4kbits/s speed=0.0102x elapsed=0:03:00.65    \nframe=  223 fps=1.2 q=52.0 size=       1KiB time=00:00:01.85 bitrate=   2.4kbits/s speed=0.0102x elapsed=0:03:01.23    \nframe=  224 fps=1.2 q=54.0 size=       1KiB time=00:00:01.85 bitrate=   2.4kbits/s speed=0.0102x elapsed=0:03:01.82    \nframe=  226 fps=1.2 q=55.0 size=       1KiB time=00:00:01.87 bitrate=   2.4kbits/s speed=0.0103x elapsed=0:03:02.38    \nframe=  227 fps=1.2 q=54.0 size=       1KiB time=00:00:01.88 bitrate=   2.4kbits/s speed=0.0103x elapsed=0:03:02.94    \nframe=  227 fps=1.2 q=54.0 size=       1KiB time=00:00:01.88 bitrate=   2.4kbits/s speed=0.0103x elapsed=0:03:03.49    \nframe=  228 fps=1.2 q=55.0 size=       1KiB time=00:00:01.89 bitrate=   2.4kbits/s speed=0.0103x elapsed=0:03:04.04    \nframe=  229 fps=1.2 q=51.0 size=       1KiB time=00:00:01.90 bitrate=   2.4kbits/s speed=0.0103x elapsed=0:03:04.60    \nframe=  230 fps=1.2 q=53.0 size=       1KiB time=00:00:01.90 bitrate=   2.3kbits/s speed=0.0103x elapsed=0:03:05.16    \nframe=  230 fps=1.2 q=53.0 size=       1KiB time=00:00:01.90 bitrate=   2.3kbits/s speed=0.0103x elapsed=0:03:05.73    \nframe=  231 fps=1.2 q=50.0 size=       1KiB time=00:00:01.91 bitrate=   2.3kbits/s speed=0.0103x elapsed=0:03:06.31    \nframe=  231 fps=1.2 q=50.0 size=       1KiB time=00:00:01.91 bitrate=   2.3kbits/s speed=0.0103x elapsed=0:03:06.88    \nframe=  232 fps=1.2 q=53.0 size=       1KiB time=00:00:01.92 bitrate=   2.3kbits/s speed=0.0103x elapsed=0:03:07.48    \nframe=  233 fps=1.2 q=46.0 size=       1KiB time=00:00:01.93 bitrate=   2.3kbits/s speed=0.0103x elapsed=0:03:08.06    \nframe=  234 fps=1.2 q=55.0 size=       1KiB time=00:00:01.94 bitrate=   2.3kbits/s speed=0.0103x elapsed=0:03:08.64    \nframe=  235 fps=1.2 q=53.0 size=       1KiB time=00:00:01.95 bitrate=   2.3kbits/s speed=0.0103x elapsed=0:03:09.21    \nframe=  237 fps=1.2 q=49.0 size=       1KiB time=00:00:01.96 bitrate=   2.3kbits/s speed=0.0104x elapsed=0:03:09.80    \nframe=  239 fps=1.3 q=53.0 size=       1KiB time=00:00:01.97 bitrate=   2.3kbits/s speed=0.0104x elapsed=0:03:10.38    \nframe=  239 fps=1.3 q=53.0 size=       1KiB time=00:00:01.98 bitrate=   2.3kbits/s speed=0.0104x elapsed=0:03:10.96    \nframe=  239 fps=1.2 q=53.0 size=       1KiB time=00:00:01.98 bitrate=   2.3kbits/s speed=0.0104x elapsed=0:03:11.53    \nframe=  240 fps=1.2 q=55.0 size=       1KiB time=00:00:01.99 bitrate=   2.2kbits/s speed=0.0104x elapsed=0:03:12.12    \nframe=  241 fps=1.3 q=35.0 size=       1KiB time=00:00:02.00 bitrate=   2.2kbits/s speed=0.0104x elapsed=0:03:12.69    \nframe=  243 fps=1.3 q=55.0 size=       1KiB time=00:00:02.01 bitrate=   2.2kbits/s speed=0.0104x elapsed=0:03:13.26    \nframe=  243 fps=1.3 q=55.0 size=       1KiB time=00:00:02.01 bitrate=   2.2kbits/s speed=0.0104x elapsed=0:03:13.82    \nframe=  244 fps=1.3 q=56.0 size=       1KiB time=00:00:02.02 bitrate=   2.2kbits/s speed=0.0104x elapsed=0:03:14.37    \nframe=  246 fps=1.3 q=56.0 size=       1KiB time=00:00:02.04 bitrate=   2.2kbits/s speed=0.0105x elapsed=0:03:14.93    \nframe=  246 fps=1.3 q=56.0 size=       1KiB time=00:00:02.04 bitrate=   2.2kbits/s speed=0.0104x elapsed=0:03:15.52    \nframe=  246 fps=1.3 q=56.0 size=       1KiB time=00:00:02.04 bitrate=   2.2kbits/s speed=0.0104x elapsed=0:03:16.10    \nframe=  247 fps=1.3 q=55.0 size=       1KiB time=00:00:02.05 bitrate=   2.2kbits/s speed=0.0104x elapsed=0:03:16.66    \nframe=  247 fps=1.3 q=55.0 size=       1KiB time=00:00:02.05 bitrate=   2.2kbits/s speed=0.0104x elapsed=0:03:17.25    \nframe=  248 fps=1.3 q=56.0 size=       1KiB time=00:00:02.05 bitrate=   2.2kbits/s speed=0.0104x elapsed=0:03:17.84    \nframe=  250 fps=1.3 q=56.0 size=       1KiB time=00:00:02.07 bitrate=   2.2kbits/s speed=0.0105x elapsed=0:03:18.43    \nframe=  251 fps=1.3 q=54.0 size=       1KiB time=00:00:02.07 bitrate=   2.2kbits/s speed=0.0104x elapsed=0:03:19.04    \nframe=  251 fps=1.3 q=54.0 size=       1KiB time=00:00:02.08 bitrate=   2.2kbits/s speed=0.0104x elapsed=0:03:19.64    \nframe=  251 fps=1.3 q=54.0 size=       1KiB time=00:00:02.08 bitrate=   2.2kbits/s speed=0.0104x elapsed=0:03:20.22    \nframe=  252 fps=1.3 q=56.0 size=       1KiB time=00:00:02.09 bitrate=   2.1kbits/s speed=0.0104x elapsed=0:03:20.84    \nframe=  253 fps=1.3 q=51.0 size=       1KiB time=00:00:02.10 bitrate=   2.1kbits/s speed=0.0104x elapsed=0:03:21.44    \nframe=  255 fps=1.3 q=54.0 size=       1KiB time=00:00:02.10 bitrate=   2.1kbits/s speed=0.0104x elapsed=0:03:22.03    \nframe=  255 fps=1.3 q=54.0 size=       1KiB time=00:00:02.11 bitrate=   2.1kbits/s speed=0.0104x elapsed=0:03:22.58    \nframe=  256 fps=1.3 q=56.0 size=       1KiB time=00:00:02.12 bitrate=   2.1kbits/s speed=0.0105x elapsed=0:03:23.14    \nframe=  259 fps=1.3 q=56.0 size=       1KiB time=00:00:02.14 bitrate=   2.1kbits/s speed=0.0105x elapsed=0:03:23.71    \nframe=  259 fps=1.3 q=56.0 size=       1KiB time=00:00:02.15 bitrate=   2.1kbits/s speed=0.0105x elapsed=0:03:24.25    \nframe=  260 fps=1.3 q=57.0 size=       1KiB time=00:00:02.15 bitrate=   2.1kbits/s speed=0.0105x elapsed=0:03:24.81    \nframe=  261 fps=1.3 q=53.0 size=       1KiB time=00:00:02.16 bitrate=   2.1kbits/s speed=0.0106x elapsed=0:03:25.36    \nframe=  262 fps=1.3 q=56.0 size=       1KiB time=00:00:02.17 bitrate=   2.1kbits/s speed=0.0106x elapsed=0:03:25.92    \nframe=  262 fps=1.3 q=56.0 size=       1KiB time=00:00:02.17 bitrate=   2.1kbits/s speed=0.0105x elapsed=0:03:26.48    \nframe=  263 fps=1.3 q=53.0 size=       1KiB time=00:00:02.18 bitrate=   2.1kbits/s speed=0.0105x elapsed=0:03:27.02    \nframe=  265 fps=1.3 q=48.0 size=       1KiB time=00:00:02.19 bitrate=   2.0kbits/s speed=0.0106x elapsed=0:03:27.57    \nframe=  267 fps=1.3 q=55.0 size=       1KiB time=00:00:02.21 bitrate=   2.0kbits/s speed=0.0107x elapsed=0:03:28.13    \nframe=  269 fps=1.3 q=52.0 size=       1KiB time=00:00:02.23 bitrate=   2.0kbits/s speed=0.0107x elapsed=0:03:28.70    \nframe=  271 fps=1.3 q=54.0 size=       1KiB time=00:00:02.25 bitrate=   2.0kbits/s speed=0.0108x elapsed=0:03:29.26    \nframe=  271 fps=1.3 q=54.0 size=       1KiB time=00:00:02.25 bitrate=   2.0kbits/s speed=0.0107x elapsed=0:03:29.83    \nframe=  273 fps=1.3 q=38.0 size=       1KiB time=00:00:02.26 bitrate=   2.0kbits/s speed=0.0108x elapsed=0:03:30.41    \nframe=  274 fps=1.3 q=57.0 size=       1KiB time=00:00:02.27 bitrate=   2.0kbits/s speed=0.0108x elapsed=0:03:30.98    \nframe=  276 fps=1.3 q=57.0 size=       1KiB time=00:00:02.29 bitrate=   2.0kbits/s speed=0.0108x elapsed=0:03:31.54    \nframe=  277 fps=1.3 q=54.0 size=       1KiB time=00:00:02.30 bitrate=   1.9kbits/s speed=0.0108x elapsed=0:03:32.10    \nframe=  278 fps=1.3 q=57.0 size=       1KiB time=00:00:02.30 bitrate=   1.9kbits/s speed=0.0109x elapsed=0:03:32.67    \nframe=  278 fps=1.3 q=57.0 size=       1KiB time=00:00:02.30 bitrate=   1.9kbits/s speed=0.0108x elapsed=0:03:33.27    \nframe=  278 fps=1.3 q=57.0 size=       1KiB time=00:00:02.30 bitrate=   1.9kbits/s speed=0.0108x elapsed=0:03:33.88    \nframe=  279 fps=1.3 q=56.0 size=       1KiB time=00:00:02.31 bitrate=   1.9kbits/s speed=0.0108x elapsed=0:03:34.47    \nframe=  279 fps=1.3 q=56.0 size=       1KiB time=00:00:02.31 bitrate=   1.9kbits/s speed=0.0108x elapsed=0:03:35.06    \nframe=  280 fps=1.3 q=50.0 size=       1KiB time=00:00:02.32 bitrate=   1.9kbits/s speed=0.0108x elapsed=0:03:35.66    \nframe=  281 fps=1.3 q=49.0 size=       1KiB time=00:00:02.33 bitrate=   1.9kbits/s speed=0.0108x elapsed=0:03:36.27    \nframe=  283 fps=1.3 q=55.0 size=       1KiB time=00:00:02.35 bitrate=   1.9kbits/s speed=0.0108x elapsed=0:03:36.85    \nframe=  283 fps=1.3 q=55.0 size=       1KiB time=00:00:02.35 bitrate=   1.9kbits/s speed=0.0108x elapsed=0:03:37.43    \nframe=  284 fps=1.3 q=57.0 size=       1KiB time=00:00:02.35 bitrate=   1.9kbits/s speed=0.0108x elapsed=0:03:38.00    \nframe=  285 fps=1.3 q=52.0 size=       1KiB time=00:00:02.36 bitrate=   1.9kbits/s speed=0.0108x elapsed=0:03:38.58    \nframe=  287 fps=1.3 q=54.0 size=       1KiB time=00:00:02.38 bitrate=   1.9kbits/s speed=0.0109x elapsed=0:03:39.16    \nframe=  287 fps=1.3 q=54.0 size=       1KiB time=00:00:02.38 bitrate=   1.9kbits/s speed=0.0108x elapsed=0:03:39.73    \nframe=  288 fps=1.3 q=56.0 size=       1KiB time=00:00:02.39 bitrate=   1.9kbits/s speed=0.0109x elapsed=0:03:40.32    \nframe=  289 fps=1.3 q=40.0 size=       1KiB time=00:00:02.40 bitrate=   1.9kbits/s speed=0.0109x elapsed=0:03:40.95    \nframe=  290 fps=1.3 q=57.0 size=       1KiB time=00:00:02.40 bitrate=   1.9kbits/s speed=0.0109x elapsed=0:03:41.52    \nframe=  291 fps=1.3 q=56.0 size=       1KiB time=00:00:02.41 bitrate=   1.9kbits/s speed=0.0109x elapsed=0:03:42.09    \nframe=  292 fps=1.3 q=57.0 size=       1KiB time=00:00:02.42 bitrate=   1.8kbits/s speed=0.0109x elapsed=0:03:42.66    \nframe=  293 fps=1.3 q=54.0 size=       1KiB time=00:00:02.43 bitrate=   1.8kbits/s speed=0.0109x elapsed=0:03:43.20    \nframe=  294 fps=1.3 q=57.0 size=       1KiB time=00:00:02.44 bitrate=   1.8kbits/s speed=0.0109x elapsed=0:03:43.75    \nframe=  295 fps=1.3 q=56.0 size=       1KiB time=00:00:02.44 bitrate=   1.8kbits/s speed=0.0109x elapsed=0:03:44.30    \nframe=  295 fps=1.3 q=56.0 size=       1KiB time=00:00:02.45 bitrate=   1.8kbits/s speed=0.0109x elapsed=0:03:44.88    \nframe=  295 fps=1.3 q=56.0 size=       1KiB time=00:00:02.45 bitrate=   1.8kbits/s speed=0.0109x elapsed=0:03:45.47    \nframe=  296 fps=1.3 q=57.0 size=       1KiB time=00:00:02.45 bitrate=   1.8kbits/s speed=0.0109x elapsed=0:03:46.05    \nframe=  299 fps=1.3 q=55.0 size=       1KiB time=00:00:02.47 bitrate=   1.8kbits/s speed=0.0109x elapsed=0:03:46.61    \nframe=  299 fps=1.3 q=55.0 size=       1KiB time=00:00:02.48 bitrate=   1.8kbits/s speed=0.0109x elapsed=0:03:47.16    \nframe=  299 fps=1.3 q=55.0 size=       1KiB time=00:00:02.48 bitrate=   1.8kbits/s speed=0.0109x elapsed=0:03:47.73    \nframe=  301 fps=1.3 q=52.0 size=       1KiB time=00:00:02.50 bitrate=   1.8kbits/s speed=0.0109x elapsed=0:03:48.31    \nframe=  303 fps=1.3 q=54.0 size=       1KiB time=00:00:02.50 bitrate=   1.8kbits/s speed=0.011x elapsed=0:03:48.88    \nframe=  304 fps=1.3 q=58.0 size=       1KiB time=00:00:02.51 bitrate=   1.8kbits/s speed=0.011x elapsed=0:03:49.50    \nframe=  305 fps=1.3 q=41.0 size=       1KiB time=00:00:02.52 bitrate=   1.8kbits/s speed=0.011x elapsed=0:03:50.08    \nframe=  306 fps=1.3 q=58.0 size=       1KiB time=00:00:02.53 bitrate=   1.8kbits/s speed=0.011x elapsed=0:03:50.68    \nframe=  307 fps=1.3 q=56.0 size=       1KiB time=00:00:02.55 bitrate=   1.8kbits/s speed=0.011x elapsed=0:03:51.27    \nframe=  307 fps=1.3 q=56.0 size=       1KiB time=00:00:02.55 bitrate=   1.8kbits/s speed=0.011x elapsed=0:03:51.83    \nframe=  308 fps=1.3 q=58.0 size=       1KiB time=00:00:02.55 bitrate=   1.8kbits/s speed=0.011x elapsed=0:03:52.39    \nframe=  309 fps=1.3 q=54.0 size=       1KiB time=00:00:02.56 bitrate=   1.7kbits/s speed=0.011x elapsed=0:03:52.93    \nframe=  310 fps=1.3 q=58.0 size=       1KiB time=00:00:02.57 bitrate=   1.7kbits/s speed=0.011x elapsed=0:03:53.51    \nframe=  310 fps=1.3 q=58.0 size=       1KiB time=00:00:02.57 bitrate=   1.7kbits/s speed=0.011x elapsed=0:03:54.07    \nframe=  311 fps=1.3 q=52.0 size=       1KiB time=00:00:02.58 bitrate=   1.7kbits/s speed=0.011x elapsed=0:03:54.65    \nframe=  311 fps=1.3 q=52.0 size=       1KiB time=00:00:02.58 bitrate=   1.7kbits/s speed=0.011x elapsed=0:03:55.23    \nframe=  312 fps=1.3 q=58.0 size=       1KiB time=00:00:02.59 bitrate=   1.7kbits/s speed=0.011x elapsed=0:03:55.80    \nframe=  314 fps=1.3 q=58.0 size=       1KiB time=00:00:02.60 bitrate=   1.7kbits/s speed=0.011x elapsed=0:03:56.38    \nframe=  315 fps=1.3 q=55.0 size=       1KiB time=00:00:02.61 bitrate=   1.7kbits/s speed=0.011x elapsed=0:03:56.94    \nframe=  315 fps=1.3 q=55.0 size=       1KiB time=00:00:02.61 bitrate=   1.7kbits/s speed=0.011x elapsed=0:03:57.52    \nframe=  317 fps=1.3 q=51.0 size=       1KiB time=00:00:02.63 bitrate=   1.7kbits/s speed=0.0111x elapsed=0:03:58.11    \nframe=  318 fps=1.3 q=57.0 size=       1KiB time=00:00:02.64 bitrate=   1.7kbits/s speed=0.0111x elapsed=0:03:58.69    \nframe=  319 fps=1.3 q=54.0 size=       1KiB time=00:00:02.65 bitrate=   1.7kbits/s speed=0.0111x elapsed=0:03:59.26    \nframe=  319 fps=1.3 q=54.0 size=       1KiB time=00:00:02.65 bitrate=   1.7kbits/s speed=0.011x elapsed=0:03:59.86    \nframe=  322 fps=1.3 q=57.0 size=       1KiB time=00:00:02.67 bitrate=   1.7kbits/s speed=0.0111x elapsed=0:04:00.43    \nframe=  323 fps=1.3 q=56.0 size=       1KiB time=00:00:02.68 bitrate=   1.7kbits/s speed=0.0111x elapsed=0:04:01.00    \nframe=  323 fps=1.3 q=56.0 size=       1KiB time=00:00:02.68 bitrate=   1.7kbits/s speed=0.0111x elapsed=0:04:01.57    \nframe=  324 fps=1.3 q=57.0 size=       1KiB time=00:00:02.69 bitrate=   1.7kbits/s speed=0.0111x elapsed=0:04:02.13    \nframe=  325 fps=1.3 q=54.0 size=       1KiB time=00:00:02.70 bitrate=   1.7kbits/s speed=0.0111x elapsed=0:04:02.70    \nframe=  326 fps=1.3 q=57.0 size=       1KiB time=00:00:02.70 bitrate=   1.7kbits/s speed=0.0111x elapsed=0:04:03.30    \nframe=  326 fps=1.3 q=57.0 size=       1KiB time=00:00:02.70 bitrate=   1.7kbits/s speed=0.0111x elapsed=0:04:03.88    \nframe=  327 fps=1.3 q=52.0 size=       1KiB time=00:00:02.71 bitrate=   1.6kbits/s speed=0.0111x elapsed=0:04:04.46    \nframe=  327 fps=1.3 q=52.0 size=       1KiB time=00:00:02.71 bitrate=   1.6kbits/s speed=0.0111x elapsed=0:04:05.05    \nframe=  328 fps=1.3 q=57.0 size=       1KiB time=00:00:02.72 bitrate=   1.6kbits/s speed=0.0111x elapsed=0:04:05.63    \nframe=  331 fps=1.3 q=54.0 size=       1KiB time=00:00:02.75 bitrate=   1.6kbits/s speed=0.0112x elapsed=0:04:06.20    \nframe=  331 fps=1.3 q=54.0 size=       1KiB time=00:00:02.75 bitrate=   1.6kbits/s speed=0.0111x elapsed=0:04:06.80    \nframe=  333 fps=1.3 q=51.0 size=       1KiB time=00:00:02.76 bitrate=   1.6kbits/s speed=0.0112x elapsed=0:04:07.37    \nframe=  334 fps=1.3 q=57.0 size=       1KiB time=00:00:02.77 bitrate=   1.6kbits/s speed=0.0112x elapsed=0:04:07.94    \nframe=  335 fps=1.3 q=54.0 size=       1KiB time=00:00:02.78 bitrate=   1.6kbits/s speed=0.0112x elapsed=0:04:08.53    \nframe=  338 fps=1.4 q=57.0 size=       1KiB time=00:00:02.80 bitrate=   1.6kbits/s speed=0.0113x elapsed=0:04:09.10    \nframe=  339 fps=1.4 q=56.0 size=       1KiB time=00:00:02.81 bitrate=   1.6kbits/s speed=0.0113x elapsed=0:04:09.66    \nframe=  340 fps=1.4 q=57.0 size=       1KiB time=00:00:02.82 bitrate=   1.6kbits/s speed=0.0113x elapsed=0:04:10.23    \nframe=  342 fps=1.4 q=57.0 size=       1KiB time=00:00:02.84 bitrate=   1.6kbits/s speed=0.0113x elapsed=0:04:10.78    \nframe=  342 fps=1.4 q=57.0 size=       1KiB time=00:00:02.84 bitrate=   1.6kbits/s speed=0.0113x elapsed=0:04:11.33    \nframe=  343 fps=1.4 q=52.0 size=       1KiB time=00:00:02.85 bitrate=   1.6kbits/s speed=0.0113x elapsed=0:04:11.91    \nframe=  343 fps=1.4 q=52.0 size=       1KiB time=00:00:02.85 bitrate=   1.6kbits/s speed=0.0113x elapsed=0:04:12.52    \nframe=  345 fps=1.4 q=50.0 size=       1KiB time=00:00:02.86 bitrate=   1.6kbits/s speed=0.0113x elapsed=0:04:13.09    \nframe=  346 fps=1.4 q=57.0 size=       1KiB time=00:00:02.87 bitrate=   1.6kbits/s speed=0.0113x elapsed=0:04:13.67    \nframe=  347 fps=1.4 q=54.0 size=       1KiB time=00:00:02.88 bitrate=   1.6kbits/s speed=0.0113x elapsed=0:04:14.25    \nframe=  348 fps=1.4 q=57.0 size=       1KiB time=00:00:02.89 bitrate=   1.5kbits/s speed=0.0113x elapsed=0:04:14.82    \nframe=  350 fps=1.4 q=57.0 size=       1KiB time=00:00:02.90 bitrate=   1.5kbits/s speed=0.0114x elapsed=0:04:15.36    \nframe=  352 fps=1.4 q=51.0 size=       1KiB time=00:00:02.92 bitrate=   1.5kbits/s speed=0.0114x elapsed=0:04:15.91    \nframe=  353 fps=1.4 q=38.0 size=       1KiB time=00:00:02.93 bitrate=   1.5kbits/s speed=0.0114x elapsed=0:04:16.46    \nframe=  354 fps=1.4 q=57.0 size=       1KiB time=00:00:02.94 bitrate=   1.5kbits/s speed=0.0114x elapsed=0:04:17.01    \nframe=  355 fps=1.4 q=56.0 size=       1KiB time=00:00:02.95 bitrate=   1.5kbits/s speed=0.0115x elapsed=0:04:17.57    \nframe=  357 fps=1.4 q=54.0 size=       1KiB time=00:00:02.95 bitrate=   1.5kbits/s speed=0.0115x elapsed=0:04:18.13    \nframe=  358 fps=1.4 q=57.0 size=       1KiB time=00:00:02.97 bitrate=   1.5kbits/s speed=0.0115x elapsed=0:04:18.69    \nframe=  358 fps=1.4 q=57.0 size=       1KiB time=00:00:02.97 bitrate=   1.5kbits/s speed=0.0115x elapsed=0:04:19.23    \nframe=  359 fps=1.4 q=56.0 size=       1KiB time=00:00:02.98 bitrate=   1.5kbits/s speed=0.0115x elapsed=0:04:19.77    \nframe=  359 fps=1.4 q=56.0 size=       1KiB time=00:00:02.98 bitrate=   1.5kbits/s speed=0.0115x elapsed=0:04:20.35    \nframe=  362 fps=1.4 q=57.0 size=       1KiB time=00:00:03.00 bitrate=   1.5kbits/s speed=0.0115x elapsed=0:04:20.90    \nframe=  363 fps=1.4 q=54.0 size=       1KiB time=00:00:03.01 bitrate=   1.5kbits/s speed=0.0115x elapsed=0:04:21.47    \nframe=  363 fps=1.4 q=54.0 size=       1KiB time=00:00:03.01 bitrate=   1.5kbits/s speed=0.0115x elapsed=0:04:22.04    \nframe=  366 fps=1.4 q=56.0 size=       1KiB time=00:00:03.04 bitrate=   1.5kbits/s speed=0.0116x elapsed=0:04:22.60    \nframe=  368 fps=1.4 q=56.0 size=       1KiB time=00:00:03.05 bitrate=   1.5kbits/s speed=0.0116x elapsed=0:04:23.16    \nframe=  369 fps=1.4 q=38.0 size=       1KiB time=00:00:03.06 bitrate=   1.5kbits/s speed=0.0116x elapsed=0:04:23.74    \nframe=  371 fps=1.4 q=55.0 size=       1KiB time=00:00:03.08 bitrate=   1.5kbits/s speed=0.0117x elapsed=0:04:24.29    \nframe=  373 fps=1.4 q=53.0 size=       1KiB time=00:00:03.10 bitrate=   1.4kbits/s speed=0.0117x elapsed=0:04:24.85    \nframe=  374 fps=1.4 q=56.0 size=       1KiB time=00:00:03.10 bitrate=   1.4kbits/s speed=0.0117x elapsed=0:04:25.40    \nframe=  375 fps=1.4 q=55.0 size=       1KiB time=00:00:03.11 bitrate=   1.4kbits/s speed=0.0117x elapsed=0:04:25.95    \nframe=  376 fps=1.4 q=56.0 size=       1KiB time=00:00:03.12 bitrate=   1.4kbits/s speed=0.0117x elapsed=0:04:26.52    \nframe=  378 fps=1.4 q=55.0 size=       1KiB time=00:00:03.14 bitrate=   1.4kbits/s speed=0.0118x elapsed=0:04:27.07    \nframe=  379 fps=1.4 q=53.0 size=       1KiB time=00:00:03.15 bitrate=   1.4kbits/s speed=0.0118x elapsed=0:04:27.63    \nframe=  382 fps=1.4 q=55.0 size=       1KiB time=00:00:03.17 bitrate=   1.4kbits/s speed=0.0118x elapsed=0:04:28.18    \nframe=  384 fps=1.4 q=49.0 size=       1KiB time=00:00:03.19 bitrate=   1.4kbits/s speed=0.0119x elapsed=0:04:28.74    \nframe=  385 fps=1.4 q=38.0 size=       1KiB time=00:00:03.20 bitrate=   1.4kbits/s speed=0.0119x elapsed=0:04:29.30    \nframe=  387 fps=1.4 q=55.0 size=       1KiB time=00:00:03.21 bitrate=   1.4kbits/s speed=0.0119x elapsed=0:04:29.86    \nframe=  389 fps=1.4 q=53.0 size=       1KiB time=00:00:03.23 bitrate=   1.4kbits/s speed=0.012x elapsed=0:04:30.40    \nframe=  390 fps=1.4 q=56.0 size=       1KiB time=00:00:03.24 bitrate=   1.4kbits/s speed=0.012x elapsed=0:04:30.94    \nframe=  391 fps=1.4 q=55.0 size=       1KiB time=00:00:03.25 bitrate=   1.4kbits/s speed=0.012x elapsed=0:04:31.52    \nframe=  392 fps=1.4 q=56.0 size=       1KiB time=00:00:03.25 bitrate=   1.4kbits/s speed=0.012x elapsed=0:04:32.11    \nframe=  394 fps=1.4 q=55.0 size=       1KiB time=00:00:03.27 bitrate=   1.4kbits/s speed=0.012x elapsed=0:04:32.68    \nframe=  396 fps=1.4 q=52.0 size=       1KiB time=00:00:03.28 bitrate=   1.4kbits/s speed=0.012x elapsed=0:04:33.28    \nframe=  398 fps=1.5 q=54.0 size=       1KiB time=00:00:03.30 bitrate=   1.4kbits/s speed=0.012x elapsed=0:04:33.86    \nframe=  400 fps=1.5 q=54.0 size=       1KiB time=00:00:03.32 bitrate=   1.3kbits/s speed=0.0121x elapsed=0:04:34.42    \nframe=  402 fps=1.5 q=55.0 size=       1KiB time=00:00:03.34 bitrate=   1.3kbits/s speed=0.0122x elapsed=0:04:34.99    \nframe=  404 fps=1.5 q=55.0 size=       1KiB time=00:00:03.35 bitrate=   1.3kbits/s speed=0.0122x elapsed=0:04:35.54    \nframe=  406 fps=1.5 q=54.0 size=       1KiB time=00:00:03.37 bitrate=   1.3kbits/s speed=0.0122x elapsed=0:04:36.09    \nframe=  407 fps=1.5 q=51.0 size=       1KiB time=00:00:03.38 bitrate=   1.3kbits/s speed=0.0122x elapsed=0:04:36.66    \nframe=  409 fps=1.5 q=47.0 size=       1KiB time=00:00:03.39 bitrate=   1.3kbits/s speed=0.0122x elapsed=0:04:37.26    \nframe=  411 fps=1.5 q=53.0 size=       1KiB time=00:00:03.40 bitrate=   1.3kbits/s speed=0.0123x elapsed=0:04:37.83    \nframe=  411 fps=1.5 q=53.0 size=       1KiB time=00:00:03.41 bitrate=   1.3kbits/s speed=0.0123x elapsed=0:04:38.41    \nframe=  413 fps=1.5 q=50.0 size=       1KiB time=00:00:03.43 bitrate=   1.3kbits/s speed=0.0123x elapsed=0:04:38.97    \nframe=  417 fps=1.5 q=36.0 size=       1KiB time=00:00:03.45 bitrate=   1.3kbits/s speed=0.0124x elapsed=0:04:39.54    \nframe=  418 fps=1.5 q=55.0 size=       1KiB time=00:00:03.47 bitrate=   1.3kbits/s speed=0.0124x elapsed=0:04:40.10    \nframe=  419 fps=1.5 q=54.0 size=       1KiB time=00:00:03.48 bitrate=   1.3kbits/s speed=0.0124x elapsed=0:04:40.66    \nframe=  420 fps=1.5 q=55.0 size=       1KiB time=00:00:03.49 bitrate=   1.3kbits/s speed=0.0124x elapsed=0:04:41.22    \nframe=  421 fps=1.5 q=52.0 size=       1KiB time=00:00:03.50 bitrate=   1.3kbits/s speed=0.0124x elapsed=0:04:41.77    \nframe=  422 fps=1.5 q=52.0 size=       1KiB time=00:00:03.50 bitrate=   1.3kbits/s speed=0.0124x elapsed=0:04:42.33    \nframe=  423 fps=1.5 q=48.0 size=       1KiB time=00:00:03.51 bitrate=   1.3kbits/s speed=0.0124x elapsed=0:04:42.90    \nframe=  425 fps=1.5 q=47.0 size=       1KiB time=00:00:03.53 bitrate=   1.3kbits/s speed=0.0125x elapsed=0:04:43.48    \nframe=  427 fps=1.5 q=53.0 size=       1KiB time=00:00:03.55 bitrate=   1.3kbits/s speed=0.0125x elapsed=0:04:44.05    \nframe=  428 fps=1.5 q=51.0 size=       1KiB time=00:00:03.55 bitrate=   1.3kbits/s speed=0.0125x elapsed=0:04:44.64    \nframe=  431 fps=1.5 q=51.0 size=       1KiB time=00:00:03.58 bitrate=   1.3kbits/s speed=0.0126x elapsed=0:04:45.22    \nframe=  434 fps=1.5 q=54.0 size=       1KiB time=00:00:03.60 bitrate=   1.2kbits/s speed=0.0126x elapsed=0:04:45.78    \nframe=  435 fps=1.5 q=53.0 size=       1KiB time=00:00:03.61 bitrate=   1.2kbits/s speed=0.0126x elapsed=0:04:46.33    \nframe=  437 fps=1.5 q=51.0 size=       1KiB time=00:00:03.63 bitrate=   1.2kbits/s speed=0.0127x elapsed=0:04:46.88    \nframe=  438 fps=1.5 q=51.0 size=       1KiB time=00:00:03.64 bitrate=   1.2kbits/s speed=0.0127x elapsed=0:04:47.44    \nframe=  439 fps=1.5 q=47.0 size=       1KiB time=00:00:03.65 bitrate=   1.2kbits/s speed=0.0127x elapsed=0:04:47.99    \nframe=  442 fps=1.5 q=54.0 size=       1KiB time=00:00:03.67 bitrate=   1.2kbits/s speed=0.0127x elapsed=0:04:48.54    \nframe=  443 fps=1.5 q=52.0 size=       1KiB time=00:00:03.68 bitrate=   1.2kbits/s speed=0.0127x elapsed=0:04:49.09    \nframe=  445 fps=1.5 q=49.0 size=       1KiB time=00:00:03.70 bitrate=   1.2kbits/s speed=0.0128x elapsed=0:04:49.64    \nframe=  448 fps=1.5 q=53.0 size=       1KiB time=00:00:03.72 bitrate=   1.2kbits/s speed=0.0128x elapsed=0:04:50.20    \nframe=  450 fps=1.5 q=54.0 size=       1KiB time=00:00:03.74 bitrate=   1.2kbits/s speed=0.0129x elapsed=0:04:50.74    \nframe=  451 fps=1.5 q=53.0 size=       1KiB time=00:00:03.75 bitrate=   1.2kbits/s speed=0.0129x elapsed=0:04:51.26    \nframe=  453 fps=1.6 q=50.0 size=       1KiB time=00:00:03.76 bitrate=   1.2kbits/s speed=0.0129x elapsed=0:04:51.80    \nframe=  455 fps=1.6 q=53.0 size=       1KiB time=00:00:03.78 bitrate=   1.2kbits/s speed=0.0129x elapsed=0:04:52.32    \nframe=  456 fps=1.6 q=54.0 size=       1KiB time=00:00:03.79 bitrate=   1.2kbits/s speed=0.0129x elapsed=0:04:52.88    \nframe=  458 fps=1.6 q=54.0 size=       1KiB time=00:00:03.80 bitrate=   1.2kbits/s speed=0.013x elapsed=0:04:53.44    \nframe=  460 fps=1.6 q=50.0 size=       1KiB time=00:00:03.82 bitrate=   1.2kbits/s speed=0.013x elapsed=0:04:53.99    \nframe=  462 fps=1.6 q=53.0 size=       1KiB time=00:00:03.84 bitrate=   1.2kbits/s speed=0.013x elapsed=0:04:54.55    \nframe=  464 fps=1.6 q=53.0 size=       1KiB time=00:00:03.85 bitrate=   1.2kbits/s speed=0.0131x elapsed=0:04:55.09    \nframe=  467 fps=1.6 q=53.0 size=       1KiB time=00:00:03.88 bitrate=   1.2kbits/s speed=0.0131x elapsed=0:04:55.64    \nframe=  468 fps=1.6 q=54.0 size=       1KiB time=00:00:03.89 bitrate=   1.2kbits/s speed=0.0131x elapsed=0:04:56.21    \nframe=  470 fps=1.6 q=52.0 size=       1KiB time=00:00:03.90 bitrate=   1.1kbits/s speed=0.0132x elapsed=0:04:56.77    \nframe=  471 fps=1.6 q=48.0 size=       1KiB time=00:00:03.91 bitrate=   1.1kbits/s speed=0.0132x elapsed=0:04:57.33    \nframe=  472 fps=1.6 q=52.0 size=       1KiB time=00:00:03.92 bitrate=   1.1kbits/s speed=0.0132x elapsed=0:04:57.91    \nframe=  475 fps=1.6 q=52.0 size=       1KiB time=00:00:03.95 bitrate=   1.1kbits/s speed=0.0132x elapsed=0:04:58.48    \nframe=  476 fps=1.6 q=54.0 size=       1KiB time=00:00:03.95 bitrate=   1.1kbits/s speed=0.0132x elapsed=0:04:59.05    \nframe=  479 fps=1.6 q=50.0 size=       1KiB time=00:00:03.98 bitrate=   1.1kbits/s speed=0.0133x elapsed=0:04:59.63    \nframe=  481 fps=1.6 q=35.0 size=       1KiB time=00:00:04.00 bitrate=   1.1kbits/s speed=0.0133x elapsed=0:05:00.20    \nframe=  483 fps=1.6 q=53.0 size=       1KiB time=00:00:04.01 bitrate=   1.1kbits/s speed=0.0134x elapsed=0:05:00.77    \nframe=  484 fps=1.6 q=54.0 size=       1KiB time=00:00:04.02 bitrate=   1.1kbits/s speed=0.0134x elapsed=0:05:01.34    \nframe=  485 fps=1.6 q=50.0 size=       1KiB time=00:00:04.03 bitrate=   1.1kbits/s speed=0.0134x elapsed=0:05:01.90    \nframe=  487 fps=1.6 q=46.0 size=       1KiB time=00:00:04.04 bitrate=   1.1kbits/s speed=0.0134x elapsed=0:05:02.46    \nframe=  488 fps=1.6 q=51.0 size=       1KiB time=00:00:04.05 bitrate=   1.1kbits/s speed=0.0134x elapsed=0:05:03.03    \nframe=  491 fps=1.6 q=52.0 size=       1KiB time=00:00:04.08 bitrate=   1.1kbits/s speed=0.0134x elapsed=0:05:03.59    \nframe=  493 fps=1.6 q=49.0 size=       1KiB time=00:00:04.10 bitrate=   1.1kbits/s speed=0.0135x elapsed=0:05:04.14    \nframe=  495 fps=1.6 q=51.0 size=       1KiB time=00:00:04.11 bitrate=   1.1kbits/s speed=0.0135x elapsed=0:05:04.69    \nframe=  496 fps=1.6 q=53.0 size=       1KiB time=00:00:04.12 bitrate=   1.1kbits/s speed=0.0135x elapsed=0:05:05.26    \nframe=  498 fps=1.6 q=54.0 size=       1KiB time=00:00:04.14 bitrate=   1.1kbits/s speed=0.0135x elapsed=0:05:05.82    \nframe=  499 fps=1.6 q=53.0 size=       1KiB time=00:00:04.15 bitrate=   1.1kbits/s speed=0.0135x elapsed=0:05:06.36    \nframe=  501 fps=1.6 q=51.0 size=       1KiB time=00:00:04.16 bitrate=   1.1kbits/s speed=0.0136x elapsed=0:05:06.91    \nframe=  502 fps=1.6 q=51.0 size=       1KiB time=00:00:04.17 bitrate=   1.1kbits/s speed=0.0136x elapsed=0:05:07.46    \nframe=  505 fps=1.6 q=46.0 size=       1KiB time=00:00:04.20 bitrate=   1.1kbits/s speed=0.0136x elapsed=0:05:08.01    \nframe=  507 fps=1.6 q=52.0 size=       1KiB time=00:00:04.21 bitrate=   1.1kbits/s speed=0.0137x elapsed=0:05:08.58    \nframe=  509 fps=1.6 q=48.0 size=       1KiB time=00:00:04.23 bitrate=   1.1kbits/s speed=0.0137x elapsed=0:05:09.16    \nframe=  509 fps=1.6 q=48.0 size=       1KiB time=00:00:04.23 bitrate=   1.1kbits/s speed=0.0137x elapsed=0:05:09.75    \nframe=  513 fps=1.7 q=36.0 size=       1KiB time=00:00:04.25 bitrate=   1.1kbits/s speed=0.0137x elapsed=0:05:10.33    \nframe=  513 fps=1.7 q=36.0 size=       1KiB time=00:00:04.26 bitrate=   1.0kbits/s speed=0.0137x elapsed=0:05:10.90    \nframe=  517 fps=1.7 q=51.0 size=       1KiB time=00:00:04.30 bitrate=   1.0kbits/s speed=0.0138x elapsed=0:05:11.46    \nframe=  517 fps=1.7 q=51.0 size=       1KiB time=00:00:04.30 bitrate=   1.0kbits/s speed=0.0138x elapsed=0:05:12.02    \nframe=  519 fps=1.7 q=54.0 size=       1KiB time=00:00:04.31 bitrate=   1.0kbits/s speed=0.0138x elapsed=0:05:12.57    \nframe=  521 fps=1.7 q=45.0 size=       1KiB time=00:00:04.33 bitrate=   1.0kbits/s speed=0.0138x elapsed=0:05:13.13    \nframe=  521 fps=1.7 q=45.0 size=       1KiB time=00:00:04.33 bitrate=   1.0kbits/s speed=0.0138x elapsed=0:05:13.70    \nframe=  521 fps=1.7 q=45.0 size=       1KiB time=00:00:04.33 bitrate=   1.0kbits/s speed=0.0138x elapsed=0:05:14.26    \nframe=  523 fps=1.7 q=53.0 size=       1KiB time=00:00:04.35 bitrate=   1.0kbits/s speed=0.0138x elapsed=0:05:14.85    \nframe=  525 fps=1.7 q=49.0 size=       1KiB time=00:00:04.36 bitrate=   1.0kbits/s speed=0.0138x elapsed=0:05:15.46    \nframe=  525 fps=1.7 q=49.0 size=       1KiB time=00:00:04.36 bitrate=   1.0kbits/s speed=0.0138x elapsed=0:05:16.05    \nframe=  527 fps=1.7 q=53.0 size=       1KiB time=00:00:04.38 bitrate=   1.0kbits/s speed=0.0138x elapsed=0:05:16.64    \nframe=  529 fps=1.7 q=35.0 size=       1KiB time=00:00:04.40 bitrate=   1.0kbits/s speed=0.0139x elapsed=0:05:17.22    \nframe=  533 fps=1.7 q=51.0 size=       1KiB time=00:00:04.43 bitrate=   1.0kbits/s speed=0.014x elapsed=0:05:17.78    \nframe=  533 fps=1.7 q=51.0 size=       1KiB time=00:00:04.43 bitrate=   1.0kbits/s speed=0.0139x elapsed=0:05:18.36    \nframe=  537 fps=1.7 q=46.0 size=       1KiB time=00:00:04.46 bitrate=   1.0kbits/s speed=0.014x elapsed=0:05:18.92    \nframe=  537 fps=1.7 q=46.0 size=       1KiB time=00:00:04.46 bitrate=   1.0kbits/s speed=0.014x elapsed=0:05:19.47    \nframe=  537 fps=1.7 q=46.0 size=       1KiB time=00:00:04.46 bitrate=   1.0kbits/s speed=0.014x elapsed=0:05:20.04    \nframe=  541 fps=1.7 q=49.0 size=       1KiB time=00:00:04.50 bitrate=   1.0kbits/s speed=0.014x elapsed=0:05:20.59    \nframe=  543 fps=1.7 q=53.0 size=       1KiB time=00:00:04.51 bitrate=   1.0kbits/s speed=0.0141x elapsed=0:05:21.15    \nframe=  547 fps=1.7 q=54.0 size=       1KiB time=00:00:04.53 bitrate=   1.0kbits/s speed=0.0141x elapsed=0:05:21.72    \nframe=  549 fps=1.7 q=51.0 size=       1KiB time=00:00:04.56 bitrate=   1.0kbits/s speed=0.0142x elapsed=0:05:22.29    \nframe=  549 fps=1.7 q=51.0 size=       1KiB time=00:00:04.56 bitrate=   1.0kbits/s speed=0.0141x elapsed=0:05:22.86    \nframe=  551 fps=1.7 q=54.0 size=       1KiB time=00:00:04.58 bitrate=   1.0kbits/s speed=0.0142x elapsed=0:05:23.42    \nframe=  553 fps=1.7 q=46.0 size=       1KiB time=00:00:04.60 bitrate=   1.0kbits/s speed=0.0142x elapsed=0:05:23.98    \nframe=  553 fps=1.7 q=46.0 size=       1KiB time=00:00:04.60 bitrate=   1.0kbits/s speed=0.0142x elapsed=0:05:24.57    \nframe=  555 fps=1.7 q=53.0 size=       1KiB time=00:00:04.60 bitrate=   1.0kbits/s speed=0.0141x elapsed=0:05:25.13    \nframe=  557 fps=1.7 q=49.0 size=       1KiB time=00:00:04.63 bitrate=   1.0kbits/s speed=0.0142x elapsed=0:05:25.68    \nframe=  557 fps=1.7 q=49.0 size=       1KiB time=00:00:04.63 bitrate=   1.0kbits/s speed=0.0142x elapsed=0:05:26.23    \nframe=  559 fps=1.7 q=51.0 size=       1KiB time=00:00:04.65 bitrate=   1.0kbits/s speed=0.0142x elapsed=0:05:26.81    \nframe=  561 fps=1.7 q=35.0 size=       1KiB time=00:00:04.66 bitrate=   1.0kbits/s speed=0.0143x elapsed=0:05:27.40    \nframe=  563 fps=1.7 q=54.0 size=       1KiB time=00:00:04.68 bitrate=   1.0kbits/s speed=0.0143x elapsed=0:05:27.97    \nframe=  565 fps=1.7 q=51.0 size=       1KiB time=00:00:04.70 bitrate=   1.0kbits/s speed=0.0143x elapsed=0:05:28.55    \nframe=  567 fps=1.7 q=49.0 size=       1KiB time=00:00:04.71 bitrate=   0.9kbits/s speed=0.0143x elapsed=0:05:29.12    \nframe=  569 fps=1.7 q=45.0 size=       1KiB time=00:00:04.73 bitrate=   0.9kbits/s speed=0.0144x elapsed=0:05:29.67    \nframe=  569 fps=1.7 q=45.0 size=       1KiB time=00:00:04.73 bitrate=   0.9kbits/s speed=0.0143x elapsed=0:05:30.23    \nframe=  571 fps=1.7 q=52.0 size=       1KiB time=00:00:04.75 bitrate=   0.9kbits/s speed=0.0144x elapsed=0:05:30.78    \nframe=  573 fps=1.7 q=49.0 size=       1KiB time=00:00:04.76 bitrate=   0.9kbits/s speed=0.0144x elapsed=0:05:31.33    \nframe=  573 fps=1.7 q=49.0 size=       1KiB time=00:00:04.76 bitrate=   0.9kbits/s speed=0.0144x elapsed=0:05:31.90    \nframe=  575 fps=1.7 q=52.0 size=       1KiB time=00:00:04.78 bitrate=   0.9kbits/s speed=0.0144x elapsed=0:05:32.47    \nframe=  577 fps=1.7 q=34.0 size=       1KiB time=00:00:04.80 bitrate=   0.9kbits/s speed=0.0144x elapsed=0:05:33.06    \nframe=  577 fps=1.7 q=34.0 size=       1KiB time=00:00:04.80 bitrate=   0.9kbits/s speed=0.0144x elapsed=0:05:33.63    \nframe=  579 fps=1.7 q=55.0 size=       1KiB time=00:00:04.81 bitrate=   0.9kbits/s speed=0.0144x elapsed=0:05:34.22    \nframe=  581 fps=1.7 q=54.0 size=       1KiB time=00:00:04.83 bitrate=   0.9kbits/s speed=0.0144x elapsed=0:05:34.80    \nframe=  581 fps=1.7 q=54.0 size=       1KiB time=00:00:04.83 bitrate=   0.9kbits/s speed=0.0144x elapsed=0:05:35.39    \nframe=  583 fps=1.7 q=55.0 size=       1KiB time=00:00:04.83 bitrate=   0.9kbits/s speed=0.0144x elapsed=0:05:35.98    \nframe=  585 fps=1.7 q=49.0 size=       1KiB time=00:00:04.86 bitrate=   0.9kbits/s speed=0.0145x elapsed=0:05:36.55    \nframe=  585 fps=1.7 q=49.0 size=       1KiB time=00:00:04.86 bitrate=   0.9kbits/s speed=0.0144x elapsed=0:05:37.10    \nframe=  585 fps=1.7 q=49.0 size=       1KiB time=00:00:04.86 bitrate=   0.9kbits/s speed=0.0144x elapsed=0:05:37.67    \nframe=  585 fps=1.7 q=49.0 size=       1KiB time=00:00:04.86 bitrate=   0.9kbits/s speed=0.0144x elapsed=0:05:38.26    \nframe=  587 fps=1.7 q=55.0 size=       1KiB time=00:00:04.88 bitrate=   0.9kbits/s speed=0.0144x elapsed=0:05:38.83    \nframe=  589 fps=1.7 q=55.0 size=       1KiB time=00:00:04.90 bitrate=   0.9kbits/s speed=0.0144x elapsed=0:05:39.38    \nframe=  591 fps=1.7 q=55.0 size=       1KiB time=00:00:04.90 bitrate=   0.9kbits/s speed=0.0144x elapsed=0:05:39.94    \n[out#0/matroska @ 000001b5f0049100] video:1127KiB audio:0KiB subtitle:0KiB other streams:0KiB global headers:0KiB muxing overhead: 0.288578%\nframe=  600 fps=1.8 q=55.0 Lsize=    1130KiB time=00:00:04.99 bitrate=1854.2kbits/s speed=0.0147x elapsed=0:05:40.41    \n",
  "seconds": 343.5685455799103,
  "probe_out": {}
}